<svg xmlns="http://www.w3.org/2000/svg" version="1.1" viewBox="0.24 0.08 3279.75 797.13"><path d="M 454.500 9.595 C 391.244 59.519, 302.931 98.869, 205.999 120.320 C 151.121 132.464, 104.715 137.812, 45.032 138.871 L 9.563 139.500 7.795 150 C 5.217 165.303, 2.223 192.875, 0.899 213.500 C -0.345 232.879, 0.240 275.998, 1.992 294 C 12.279 399.727, 49.178 491.054, 114.514 572.500 C 191.036 667.890, 304.012 742.034, 446.067 790.093 L 467.099 797.209 487.886 790.156 C 636.555 739.717, 750.002 664.362, 827.704 564.442 C 881.360 495.444, 916.584 412.439, 928.891 326 C 932.591 300.014, 933.165 291.959, 933.708 258.380 C 934.394 215.992, 932.981 194.353, 926.889 153.888 L 924.689 139.276 888.594 138.703 C 852.216 138.124, 831.302 136.749, 801 132.943 C 674.987 117.115, 554.377 70.183, 475 6.090 C 470.875 2.759, 467.275 0.054, 467 0.079 C 466.725 0.104, 461.100 4.386, 454.500 9.595 M 462.500 46.191 C 460.300 50.121, 457.329 55.197, 455.897 57.471 L 453.294 61.606 442.397 62.852 C 436.404 63.537, 429.836 64.355, 427.802 64.669 L 424.103 65.239 434.302 73.734 C 439.911 78.406, 444.643 82.840, 444.818 83.588 C 444.993 84.335, 444.174 89.701, 442.998 95.512 C 441.821 101.323, 441.003 106.460, 441.179 106.929 C 441.356 107.397, 446.900 105.367, 453.500 102.418 C 460.100 99.469, 466.222 97.043, 467.104 97.028 C 467.986 97.013, 474.159 99.475, 480.822 102.500 C 487.485 105.525, 493.128 108, 493.361 108 C 493.595 108, 492.703 102.938, 491.380 96.750 C 490.056 90.563, 489.092 84.765, 489.237 83.866 C 489.381 82.968, 494.154 78.355, 499.841 73.616 C 506.545 68.031, 509.535 64.970, 508.341 64.916 C 507.329 64.869, 500.655 64.080, 493.511 63.162 L 480.522 61.492 474.011 50.271 C 470.430 44.099, 467.275 39.049, 467 39.048 C 466.725 39.047, 464.700 42.262, 462.500 46.191 M 302.512 119.581 C 299.219 125.394, 296.069 130.495, 295.512 130.917 C 294.955 131.340, 289.325 132.248, 283 132.936 C 263.915 135.013, 264.552 133.938, 276.560 143.806 C 282.342 148.558, 287 153.143, 287 154.083 C 287 155.016, 286.100 160.154, 285 165.500 C 283.900 170.846, 283 175.823, 283 176.561 C 283 177.456, 286.740 176.188, 294.250 172.749 C 300.973 169.670, 306.909 167.597, 309 167.597 C 311.091 167.597, 317.027 169.670, 323.750 172.749 C 331.260 176.188, 335 177.456, 335 176.561 C 335 175.823, 334.100 170.846, 333 165.500 C 331.900 160.154, 331 155.032, 331 154.119 C 331 153.205, 335.740 148.572, 341.534 143.822 L 352.067 135.187 348.284 134.606 C 346.203 134.287, 340.450 133.551, 335.500 132.970 C 330.550 132.390, 325.520 131.709, 324.323 131.457 C 322.798 131.136, 320.253 127.710, 315.823 120.016 C 312.345 113.976, 309.275 109.029, 309 109.023 C 308.725 109.017, 305.805 113.768, 302.512 119.581 M 620.500 116.191 C 618.300 120.121, 615.330 125.195, 613.900 127.466 L 611.301 131.595 598.900 132.926 C 592.080 133.657, 585.651 134.568, 584.614 134.950 C 583.053 135.525, 584.474 137.090, 592.864 144.036 C 598.439 148.651, 603 153.169, 603 154.074 C 603 154.980, 602.067 160.297, 600.926 165.889 C 599.786 171.482, 598.998 176.447, 599.176 176.924 C 599.354 177.401, 605.266 175.194, 612.313 172.020 L 625.126 166.249 638.111 172.125 C 645.253 175.356, 651.239 178, 651.414 178 C 651.589 178, 650.657 172.713, 649.343 166.250 C 648.029 159.787, 647.077 153.989, 647.227 153.365 C 647.377 152.740, 652.107 148.391, 657.739 143.700 L 667.977 135.172 664.239 134.599 C 662.182 134.283, 656.450 133.551, 651.500 132.970 C 646.550 132.390, 641.530 131.711, 640.345 131.462 C 638.848 131.148, 636.253 127.652, 631.845 120.013 C 628.355 113.964, 625.275 109.023, 625 109.031 C 624.725 109.039, 622.700 112.262, 620.500 116.191 M 450.988 137.582 C 442.470 146.153, 431.225 156.774, 426 161.185 C 396.232 186.316, 358.237 203.927, 313.432 213.362 C 287.185 218.889, 280.041 219.506, 243.250 219.422 C 218.047 219.364, 209 219.647, 209 220.494 C 209 221.127, 207.878 229.255, 206.506 238.556 C 197.569 299.173, 203.968 371.613, 223.608 432.123 C 250.029 513.529, 298.710 578.241, 368.221 624.360 C 394.309 641.668, 417.918 653.766, 450.696 666.621 L 466.991 673.012 479.745 668.130 C 539.695 645.183, 585.591 615.824, 625.521 574.878 C 654.276 545.392, 676.796 512.567, 693.905 475.204 C 726.417 404.200, 738.882 315.627, 727.362 237.457 L 724.703 219.415 690.602 219.457 C 662.594 219.492, 654.356 219.176, 644.500 217.687 C 608.449 212.241, 578.464 203.235, 551.581 189.778 C 527.745 177.845, 512.526 166.430, 486.895 141.255 C 476.112 130.665, 467.106 122, 466.883 122 C 466.659 122, 459.506 129.012, 450.988 137.582 M 453.689 160.524 C 432.929 180.678, 414.325 193.676, 388.500 206.066 C 346.343 226.292, 300.618 236.381, 250.749 236.462 L 226.999 236.500 226.497 239.500 C 223.369 258.208, 221.669 287.209, 222.511 307.500 C 225.671 383.644, 243.736 448.303, 277.551 504.500 C 311.040 560.155, 362.256 606.146, 424.500 636.457 C 441.738 644.851, 463.903 654, 467.002 654 C 469.503 654, 491.087 645.304, 506.154 638.225 C 529.394 627.307, 558.862 608.903, 579.500 592.417 C 593.512 581.224, 620.305 554.510, 630.740 541.330 C 662.997 500.583, 684.733 456.344, 697.970 404.500 C 708.695 362.495, 713.487 315.365, 711.164 274.742 C 710.140 256.834, 709.164 247.434, 707.455 239 L 706.948 236.500 683.224 236.456 C 649.785 236.394, 623.395 232.670, 591.485 223.511 C 545.896 210.427, 511.262 190.598, 478.389 158.761 C 472.278 152.842, 467.103 148.019, 466.889 148.043 C 466.675 148.067, 460.735 153.683, 453.689 160.524 M 459 175.147 C 411.915 219.425, 337.437 247.100, 258.363 249.704 L 240.226 250.301 239.627 255.400 C 238.191 267.626, 237.777 307.265, 238.914 323.500 C 244.005 396.167, 264.061 458.462, 299.403 511.384 C 333.806 562.900, 384.061 604.410, 444 630.819 C 451.425 634.090, 459.750 637.559, 462.500 638.527 L 467.500 640.287 477.500 636.247 C 509.678 623.247, 541.948 604.594, 568 583.934 C 581.667 573.096, 608.500 546.322, 619.047 533 C 671.334 466.952, 698.080 380.039, 695.661 284.039 C 695.321 270.542, 694.757 257.430, 694.408 254.900 L 693.774 250.301 675.637 249.704 C 623.722 247.994, 573.279 235.531, 531.058 213.983 C 511.191 203.842, 493.072 191.363, 476.309 176.274 C 471.253 171.723, 466.978 168.021, 466.809 168.047 C 466.639 168.073, 463.125 171.268, 459 175.147 M 462.946 174.597 C 457.263 180.530, 440.221 193.887, 428.500 201.596 C 381.388 232.584, 318.961 250.357, 250.500 252.276 L 242.500 252.500 241.670 259.500 C 240.383 270.354, 240.519 319.066, 241.875 333 C 247.122 386.915, 259.685 432.579, 280.879 474.769 C 317.189 547.051, 377.587 601.599, 457.713 634.474 L 466.927 638.254 475.213 634.968 C 497.690 626.055, 520.163 614.190, 542.500 599.443 C 561.588 586.841, 575.891 575.147, 592.551 558.522 C 649.813 501.381, 682.932 426.708, 692.131 334 C 693.570 319.502, 693.886 275.968, 692.657 261.750 L 691.813 252 681.961 252 C 649.196 252, 602.711 244.065, 570.588 232.988 C 532.358 219.806, 499.156 200.577, 473.366 176.683 C 469.993 173.557, 467.044 171, 466.813 171 C 466.581 171, 464.842 172.619, 462.946 174.597 M 463.245 279.250 L 463.500 374.500 569.681 374.755 C 670.170 374.995, 675.891 374.915, 676.390 373.255 C 678.734 365.460, 684.587 311.882, 685.653 288.463 L 686.291 274.426 673.396 273.152 C 598.063 265.709, 528.649 237.795, 476.172 193.840 C 469.752 188.463, 464.160 184.049, 463.745 184.032 C 463.330 184.014, 463.105 226.862, 463.245 279.250 M 350.500 262.049 C 334.183 264.211, 319.204 271.576, 307.854 283.018 C 293.407 297.580, 288.119 315.153, 292.540 333.907 C 294.906 343.945, 299.473 351.565, 308.574 360.665 C 315.283 367.371, 318.417 369.643, 326.121 373.381 C 339.184 379.720, 346.764 381.400, 362 381.334 C 384.183 381.237, 400.117 374.945, 414.617 360.555 C 426.656 348.608, 432 336.600, 432 321.500 C 432 306.443, 426.697 294.588, 414.546 282.485 C 398.127 266.130, 375.114 258.787, 350.500 262.049 M 523 268.528 C 507.875 272.577, 494.488 276.148, 493.250 276.464 C 489.651 277.383, 490.608 279.802, 495.103 281.149 C 498.851 282.272, 499.349 282.201, 500.853 280.330 C 502.093 278.787, 508.757 276.643, 527.844 271.647 L 553.189 265.012 578.088 271.756 C 591.782 275.465, 602.990 278.729, 602.993 279.008 C 602.997 279.288, 591.784 282.464, 578.075 286.066 L 553.150 292.616 538.940 288.743 C 528.889 286.004, 524.418 285.182, 523.665 285.935 C 521.746 287.854, 524.436 289.118, 538.961 293.127 L 553.095 297.028 583.446 289.014 C 600.139 284.606, 614.068 281, 614.399 281 C 616.024 281, 614.717 277.838, 612.750 277.011 C 608.460 275.206, 554.907 261, 552.709 261.084 C 551.494 261.130, 538.125 264.480, 523 268.528 M 345.856 265.447 C 310.728 272.785, 287.780 303.698, 295.489 333.297 C 298.088 343.274, 302.663 350.919, 310.876 359.011 C 322.140 370.107, 336.785 377, 352.523 378.613 L 359 379.276 359 356.731 L 359 334.186 354 330 L 349 325.814 349 312.859 C 349 300.008, 348.978 299.885, 346.286 297.570 C 343.862 295.484, 343.698 294.959, 344.752 292.645 C 346.127 289.627, 350.165 288.299, 353.435 289.788 C 356.592 291.227, 357.216 294.456, 354.903 297.396 C 353.123 299.660, 352.070 309, 353.596 309 C 353.923 309, 355.498 308.069, 357.096 306.932 C 359.853 304.968, 360 304.490, 360 297.467 C 360 291.180, 359.710 289.915, 358.068 289.036 C 353.873 286.791, 354.412 281.900, 359.066 279.973 C 361.505 278.963, 362.403 279.034, 364.494 280.404 C 367.325 282.259, 367.830 286.067, 365.500 288 C 364.385 288.925, 364 291.395, 364 297.612 L 364 305.980 358.500 309.631 L 353 313.283 353.031 319.392 C 353.058 324.629, 353.397 325.743, 355.408 327.204 C 357.702 328.870, 357.856 328.814, 362.377 324.663 L 367 320.419 367 309.730 L 367 299.041 371.490 294.903 C 375.035 291.635, 375.858 290.282, 375.403 288.469 C 375.012 286.913, 375.499 285.501, 376.913 284.087 C 380.769 280.231, 387 282.039, 387 287.012 C 387 290.296, 383.120 293.644, 380.485 292.633 C 379.554 292.275, 377.399 293.451, 374.978 295.639 L 371 299.233 371 310.500 L 371 321.766 366.531 325.133 L 362.062 328.500 362.031 353.897 L 362 379.293 369.298 378.677 C 385.942 377.270, 400.644 370.432, 412.583 358.547 C 424.206 346.975, 428.964 336.136, 428.988 321.176 C 429.003 312.256, 425.580 301.220, 420.362 293.357 C 412.400 281.362, 396.658 270.453, 381.500 266.426 C 373.212 264.224, 354.210 263.702, 345.856 265.447 M 345 268.551 C 341.425 269.317, 334.342 271.998, 329.260 274.510 C 312.201 282.942, 300.806 297.365, 297.983 314.099 C 293.853 338.587, 310.834 363.299, 338.010 372.347 C 342.129 373.718, 347.637 375.152, 350.250 375.534 L 355 376.227 354.952 358.364 L 354.904 340.500 347.465 334.500 L 340.025 328.500 340.013 320.365 C 340.001 312.784, 340.170 312.118, 342.500 310.592 C 347.162 307.537, 344.667 302, 338.629 302 C 336.853 302, 334.860 302.540, 334.200 303.200 C 332.367 305.033, 332.769 308.822, 335 310.732 C 336.355 311.892, 337 313.682, 337 316.279 L 337 320.113 334 318.341 C 331.088 316.621, 331 316.347, 331 309.025 C 331 302.489, 331.275 301.309, 333.062 300.193 C 336.035 298.337, 335.306 293.899, 331.750 292.203 C 329.481 291.120, 328.519 291.120, 326.250 292.203 C 322.694 293.899, 321.965 298.337, 324.938 300.193 C 326.745 301.322, 327 302.483, 327 309.591 L 327 317.701 332 320.809 C 336.187 323.412, 337 324.402, 337 326.900 C 337 328.540, 337.450 330.160, 338 330.500 C 340.136 331.820, 338.830 333, 335.232 333 C 329.829 333, 321.648 326.240, 321.561 321.703 C 321.479 317.435, 317.397 315.221, 313.262 317.203 C 309.924 318.803, 309.306 321.292, 311.440 324.549 C 312.578 326.285, 313.958 327, 316.172 327 C 318.400 327, 320.867 328.292, 324.764 331.500 C 330.088 335.883, 330.412 336, 337.221 336 C 343.523 336, 344.596 336.304, 348.106 339.084 L 352 342.168 352 357.603 L 352 373.038 349.250 372.419 C 340.795 370.515, 337.828 369.520, 331.243 366.379 C 322.965 362.431, 312.844 353.549, 307.971 345.955 C 301.102 335.250, 299.097 320.294, 302.895 308.091 C 308.258 290.858, 325.258 276.313, 345.707 271.461 C 356.356 268.934, 373.945 269.766, 383.835 273.264 C 399.362 278.756, 411.470 288.988, 417.826 301.986 C 421.439 309.376, 421.500 309.700, 421.500 321.552 C 421.500 333.476, 421.460 333.685, 417.727 341.238 C 409.768 357.342, 392.369 369.519, 372.861 372.638 C 369.828 373.123, 369 372.935, 369 371.763 C 369 370.738, 371.269 369.723, 376.250 368.522 C 416.981 358.702, 432.014 317.330, 404.734 290.134 C 370.484 255.990, 304.900 276.576, 304.900 321.471 C 304.900 342.382, 319.198 359.726, 342.815 367.463 C 347.882 369.123, 350.441 368.959, 348.433 367.104 C 347.920 366.630, 345.700 365.683, 343.500 364.999 C 335.867 362.629, 326.183 356.835, 320.604 351.300 C 303.201 334.036, 303.481 308.379, 321.257 291.309 C 332.132 280.866, 345.288 275.782, 361.500 275.756 C 398.179 275.697, 423.968 305.757, 412.859 335.619 C 408.121 348.354, 396.520 358.960, 381.676 364.127 C 368.430 368.738, 369 369.148, 369 355 L 369 343 374.375 343 C 378.373 343, 381.689 342.117, 387.314 339.553 C 393.026 336.950, 395.716 336.242, 398.302 336.662 C 403.356 337.482, 406.189 335.610, 405.808 331.702 C 405.577 329.331, 404.845 328.307, 402.890 327.624 C 398.932 326.241, 395.142 327.586, 394.374 330.645 C 393.859 332.697, 392.119 333.999, 386.293 336.691 C 382.209 338.578, 377.952 339.982, 376.832 339.811 C 375.390 339.590, 378.683 337.014, 388.149 330.955 L 401.500 322.410 401.793 314.019 C 402.041 306.940, 402.402 305.407, 404.101 304.217 C 406.948 302.222, 406.248 297.980, 402.750 296.032 C 400.280 294.656, 399.720 294.656, 397.250 296.033 C 393.801 297.957, 393.254 301.254, 395.939 303.939 C 397.653 305.653, 398 307.259, 398 313.481 L 398 320.962 387.954 327.481 C 382.429 331.066, 377.704 334, 377.454 334 C 377.204 334, 377 331.845, 377 329.211 C 377 324.477, 377.063 324.384, 382.500 321.089 C 387.400 318.120, 388 317.392, 388 314.423 C 388 312.206, 388.833 310.258, 390.490 308.601 C 392.125 306.966, 392.764 305.491, 392.350 304.306 C 390.791 299.834, 385.373 298.627, 382 302 C 379.395 304.605, 379.476 305.567, 382.557 308.647 C 386.550 312.641, 385.591 315.794, 379.268 319.464 L 374.035 322.500 374.016 329.500 L 373.996 336.500 369.498 339.342 L 365 342.184 365 359.092 L 365 376 368.340 376 C 370.177 376, 375.240 375.103, 379.590 374.007 C 409.757 366.407, 429.533 340.534, 425.193 314.345 C 423.777 305.799, 418.422 294.798, 412.439 288.143 C 403.983 278.738, 388.859 270.510, 375.566 268.083 C 367.573 266.624, 352.954 266.848, 345 268.551 M 525.500 279.026 C 515.050 279.992, 506.365 280.832, 506.200 280.892 C 506.035 280.951, 506.035 283.587, 506.200 286.750 C 506.460 291.733, 506.767 292.500, 508.500 292.500 C 510.122 292.500, 510.556 291.734, 510.798 288.453 L 511.095 284.405 532.798 282.603 C 545.615 281.539, 554.780 280.350, 555.184 279.698 C 557.169 276.497, 553.686 276.418, 525.500 279.026 M 520 300.405 C 520 309.807, 520.041 309.970, 522.750 311.360 C 528.324 314.221, 537.495 315.410, 554 315.410 C 570.421 315.411, 581.096 313.825, 584.677 310.853 C 585.593 310.093, 586 307.014, 586 300.846 C 586 293.600, 585.701 291.823, 584.399 291.323 C 581.922 290.372, 581.032 292.858, 581.015 300.775 C 580.997 309.547, 581.242 309.388, 565.106 311.077 C 554.284 312.210, 536.263 311.274, 528.500 309.175 C 525.524 308.371, 525.496 308.297, 525 299.932 C 524.537 292.126, 524.333 291.476, 522.250 291.180 C 520.052 290.868, 520 291.079, 520 300.405 M 501.814 297.510 C 500.831 299.667, 500.998 300.369, 503.009 302.510 C 505.870 305.555, 510.231 305.769, 513 303 C 516.336 299.664, 515.031 295, 510.762 295 C 509.354 295, 508.992 295.643, 509.212 297.750 C 509.412 299.656, 509.039 300.500, 508 300.500 C 506.961 300.500, 506.588 299.656, 506.788 297.750 C 507.018 295.547, 506.666 295, 505.016 295 C 503.788 295, 502.496 296.013, 501.814 297.510 M 503.169 307.309 C 502.632 307.964, 501.873 311.087, 501.481 314.250 L 500.770 320 508 320 L 515.230 320 514.519 314.250 C 513.726 307.844, 512.603 305.831, 510.314 306.710 C 509.141 307.160, 508.891 308.337, 509.264 311.650 C 509.677 315.317, 509.479 316, 508 316 C 506.521 316, 506.323 315.317, 506.736 311.650 C 507.109 308.337, 506.859 307.160, 505.686 306.710 C 504.839 306.385, 503.707 306.655, 503.169 307.309 M 492.002 327.234 C 488.419 329.044, 487.131 330.440, 485.606 334.171 C 483.911 338.314, 483.841 339.359, 484.981 343.431 C 487.970 354.107, 499.249 361.769, 516.119 364.583 L 525.738 366.188 532.787 363.645 C 546.882 358.561, 572.536 358.066, 597.450 362.399 C 602.645 363.302, 605.222 363.378, 605.952 362.648 C 607.696 360.904, 607.199 360.346, 602.250 358.490 C 599.638 357.510, 595.446 355.684, 592.935 354.431 C 588.083 352.011, 585.204 352.484, 586.366 355.510 C 586.850 356.772, 586.620 357.068, 585.493 356.636 C 584.652 356.313, 578.010 355.758, 570.732 355.402 C 555.453 354.656, 541.450 356.054, 533.100 359.161 C 515.558 365.686, 489.500 353.932, 489.500 339.494 C 489.500 328.508, 502.208 325.772, 512.028 334.645 C 517.184 339.302, 518.373 344.470, 514.931 347.257 C 511.913 349.701, 507.591 348.941, 503.786 345.295 C 500.732 342.369, 500.156 339.261, 502.500 338.362 C 504.760 337.494, 504.390 334, 502.039 334 C 499.528 334, 495.999 337.765, 496.004 340.439 C 496.011 344.293, 499.874 349.057, 504.738 351.209 C 509.382 353.263, 509.522 353.265, 520.462 351.504 C 534.616 349.224, 568.956 348.372, 582 349.976 C 587.225 350.619, 594.650 351.384, 598.500 351.676 C 605.057 352.175, 605.651 352.047, 607.882 349.650 C 612.644 344.533, 609.192 333.395, 601.144 327.910 C 597.610 325.501, 597.597 325.500, 575.554 326 C 544.029 326.715, 519.121 326.618, 506.994 325.734 C 497.226 325.022, 496.173 325.128, 492.002 327.234 M 568 330.041 C 561.675 330.424, 547.406 330.796, 536.291 330.868 L 516.083 331 519.162 335.953 C 521.431 339.604, 522.119 341.734, 521.779 344.056 C 521.316 347.205, 521.317 347.205, 525.167 346.589 C 542.749 343.778, 573.756 344.022, 594.075 347.133 C 603.722 348.610, 605.001 348.158, 604.996 343.281 C 604.992 338.600, 602.055 333.614, 597.759 330.995 C 594.204 328.827, 590.199 328.699, 568 330.041 M 150.221 375.233 C 145.348 381.106, 142.451 395.775, 143.975 406.864 C 145.013 414.416, 149.331 425.077, 151.625 425.752 C 153.070 426.177, 155.479 420.135, 157.051 412.147 C 159.963 397.346, 154.842 369.666, 150.221 375.233 M 780.085 378.108 C 774.812 389.945, 774.967 410.412, 780.428 423.482 L 782.038 427.336 784.562 423.918 C 788.631 418.408, 790.460 410.747, 790.391 399.500 C 790.326 388.971, 788.136 380.830, 784.012 375.791 L 782.137 373.500 780.085 378.108 M 282.577 425.250 C 289.321 463.193, 302.466 501.584, 315.687 521.954 C 322.810 532.930, 341.906 552.074, 356.438 562.811 C 376.913 577.938, 406.555 594.294, 436.435 606.953 C 450.637 612.970, 475.011 622, 477.048 622 C 477.645 622, 478 583.928, 478 520 L 478 418 379.644 418 L 281.288 418 282.577 425.250 M 578.250 418.975 C 577.013 419.503, 576 420.556, 576 421.314 C 576 422.403, 578.258 422.681, 586.750 422.640 C 595.571 422.597, 598.309 422.958, 602.008 424.654 C 612.235 429.344, 618.350 437.627, 618.444 446.918 C 618.475 449.988, 618.151 453.747, 617.725 455.272 C 617.135 457.384, 617.332 458.190, 618.553 458.659 C 621.366 459.738, 623.185 456.567, 623.743 449.607 C 624.224 443.627, 623.971 442.384, 621.087 436.526 C 615.207 424.581, 605.332 418.796, 590 418.313 C 584.775 418.148, 579.487 418.446, 578.250 418.975 M 170.384 426.914 C 165.075 429.323, 161.085 434.631, 158.437 442.803 L 156.322 449.330 154.213 439.415 L 152.104 429.500 152.670 439.500 L 153.237 449.500 149.086 443.325 C 142.484 433.504, 136.482 429, 129.998 429 C 127.252 429, 127.149 429.165, 127.653 432.750 C 128.991 442.257, 133.414 451.274, 139.938 457.789 C 143.833 461.679, 149.976 465, 153.276 465 C 155.465 465, 155.860 465.923, 158.852 478.011 C 160.622 485.167, 162.354 491.760, 162.700 492.661 C 163.046 493.563, 159.541 490.521, 154.912 485.900 C 145.713 476.721, 136.971 471.332, 129.850 470.452 C 123.008 469.606, 122.325 470.602, 124.426 478.365 C 128.189 492.265, 142.892 510.375, 155.372 516.481 C 158.953 518.233, 163.291 519.414, 167.339 519.739 C 173.361 520.223, 173.747 520.410, 174.824 523.374 C 175.950 526.472, 186.091 545.116, 189.650 550.633 L 191.500 553.500 189 551.754 C 176.190 542.806, 167.615 537.598, 161.158 534.841 C 154.636 532.058, 152.283 531.567, 145.303 531.536 C 140.763 531.516, 136.626 531.978, 136.032 532.570 C 134.546 534.053, 139.825 544.062, 146.655 552.710 C 161.075 570.971, 183.764 584, 201.145 584 C 204.294 584, 208.053 583.550, 209.500 583 C 211.828 582.115, 212.432 582.373, 214.766 585.250 C 216.216 587.038, 222.825 594.059, 229.451 600.854 L 241.500 613.209 233.500 609.247 C 204.577 594.924, 178.935 590.388, 169.151 597.863 L 166.802 599.658 171.785 605.579 C 185.380 621.732, 204.817 634.636, 226 641.574 C 233.589 644.060, 236.001 644.366, 248.500 644.429 C 261.964 644.497, 262.685 644.395, 267.341 641.769 L 272.182 639.039 281.841 645.845 C 311.110 666.468, 348.881 686.045, 380.873 697.174 C 385.479 698.776, 389.376 699.955, 389.534 699.793 C 389.692 699.632, 385.474 697.512, 380.161 695.081 C 348.805 680.741, 306.943 655.526, 281.856 635.871 L 278.500 633.241 280.769 629.200 C 287.511 617.195, 284.881 597.527, 273.455 574.500 C 267.606 562.712, 258.181 549.601, 255.256 549.183 C 251.759 548.683, 243.706 557.369, 241.465 564.058 C 238.739 572.195, 239.121 583.520, 242.459 593.509 C 243.928 597.904, 245.825 602.573, 246.676 603.885 C 248.218 606.262, 248.215 606.264, 245.877 604.626 C 244.587 603.723, 238.256 597.254, 231.809 590.251 L 220.087 577.519 222.429 575.009 C 227.887 569.162, 230.103 561.377, 230.087 548.100 C 230.081 542.699, 229.344 534.730, 228.449 530.390 C 226.760 522.191, 222.001 508.752, 219.649 505.534 C 218.337 503.740, 218.143 503.753, 213.645 505.930 C 207.955 508.684, 203.599 513.792, 200.984 520.775 C 198.543 527.295, 197.553 537.941, 198.802 544.250 C 199.319 546.862, 199.628 549, 199.488 549 C 198.954 549, 190.974 536.095, 186.016 527.214 L 180.832 517.929 184.875 514.006 C 192.472 506.633, 196.206 495.559, 196.341 480 C 196.448 467.641, 194.616 459, 191.889 459 C 188.509 459, 182.366 462.754, 178.659 467.086 C 174.909 471.467, 171.010 481.300, 170.985 486.444 C 170.946 494.087, 169.169 491.807, 164.690 478.368 L 160.095 464.580 162.797 463.417 C 170.842 459.958, 177.500 444.768, 176.804 431.464 C 176.637 428.271, 176.050 425.520, 175.500 425.352 C 174.950 425.184, 172.648 425.887, 170.384 426.914 M 757.667 425.667 C 756.626 426.708, 756.883 436.344, 758.109 442.201 C 760.174 452.073, 768.236 464, 772.844 464 C 773.480 464, 774 464.233, 774 464.517 C 774 465.448, 765.845 489.455, 765.040 490.893 C 764.547 491.774, 763.813 489.738, 763.060 485.397 C 760.967 473.337, 755.772 464.965, 747.885 460.941 C 741.493 457.680, 740.315 458.182, 738.928 464.750 C 734.700 484.774, 740.851 509.645, 751.555 515.801 C 753.418 516.873, 753.313 517.281, 749.062 525.498 C 744.387 534.536, 733.376 551.909, 734.476 548.512 C 735.924 544.040, 736.193 533.824, 735.025 527.635 C 732.895 516.345, 724.427 505.561, 717.066 504.764 C 714.912 504.530, 714.267 505.363, 711.462 512 C 705.812 525.369, 704.508 532.021, 704.504 547.500 C 704.500 563.121, 705.313 566.637, 710.507 573.442 L 713.831 577.795 702.555 590.148 C 696.354 596.941, 690.037 603.625, 688.517 605 L 685.754 607.500 687.776 603.488 C 694.043 591.051, 696.151 574.331, 692.704 564.391 C 690.730 558.695, 685.791 552.409, 681.198 549.744 L 678.171 547.988 673.695 553.631 C 659.637 571.352, 649.925 595.652, 649.829 613.345 C 649.786 621.213, 650.103 622.815, 652.700 627.845 L 655.620 633.500 645.060 641.373 C 618.502 661.171, 575.536 686.253, 548.789 697.571 C 545.098 699.133, 542.218 700.552, 542.390 700.724 C 542.939 701.272, 562.235 694.269, 575.081 688.859 C 600.138 678.307, 628.166 662.806, 650.680 647.050 L 661.851 639.232 667.175 641.866 C 672.158 644.331, 673.368 644.496, 686 644.440 C 697.972 644.388, 700.462 644.066, 708 641.596 C 729.486 634.556, 750.882 620.211, 763.267 604.544 L 767.194 599.575 765.066 597.852 C 756.373 590.813, 731.637 594.638, 705.063 607.131 L 694.626 612.037 701.593 604.769 C 705.425 600.771, 711.622 594.055, 715.364 589.844 C 721.939 582.446, 722.275 582.219, 725.328 583.094 C 742.104 587.905, 770.728 574.043, 786.936 553.256 C 794.266 543.856, 799.480 534.079, 797.968 532.570 C 797.374 531.978, 793.237 531.516, 788.697 531.536 C 781.717 531.567, 779.364 532.058, 772.842 534.841 C 766.410 537.587, 755.948 543.953, 745.142 551.697 C 743.197 553.091, 743.503 552.214, 746.891 546.678 C 749.149 542.989, 753.252 535.477, 756.008 529.985 L 761.018 520 764.850 520 C 781.686 520, 802.993 500.490, 809.451 479.160 C 811.948 470.915, 811.279 469.570, 805.047 470.308 C 796.400 471.332, 787.472 477.006, 776.644 488.360 C 773.423 491.737, 771.109 493.600, 771.502 492.500 C 771.895 491.400, 773.631 484.812, 775.359 477.861 L 778.500 465.221 782.165 464.717 C 792.690 463.270, 803.796 448.658, 806.462 432.750 C 807.075 429.091, 807.016 429, 804.005 429 C 797.477 429, 790.403 434.588, 783.795 444.966 L 780.907 449.500 781.436 440 L 781.964 430.500 780.054 439 C 779.004 443.675, 778.073 448.175, 777.987 449 C 777.901 449.825, 777.272 448.250, 776.591 445.500 C 774.112 435.495, 769.698 429.443, 762.768 426.548 C 758.520 424.772, 758.555 424.779, 757.667 425.667 M 582.166 431.001 C 577.895 432.825, 580.306 434.474, 588.079 435.046 C 599.135 435.859, 604.359 440.391, 603.973 448.836 C 603.715 454.508, 603.868 455, 605.893 455 C 608.207 455, 609 453.125, 609 447.653 C 609 438.418, 601.164 431.178, 590.343 430.416 C 587.129 430.189, 583.450 430.453, 582.166 431.001 M 381.263 460.500 C 381.574 470.125, 381.498 478, 381.094 478 C 380.690 478, 378.446 476.362, 376.107 474.359 L 371.854 470.719 369.177 472.717 C 367.705 473.817, 366.500 475.205, 366.500 475.803 C 366.500 476.401, 370.772 480.490, 375.994 484.890 C 385.212 492.657, 385.547 492.839, 387.494 491.141 C 390.495 488.525, 404.425 476.636, 405 476.200 C 405.275 475.991, 404.188 474.772, 402.585 473.491 L 399.669 471.161 395.191 474.581 C 392.728 476.461, 390.327 478, 389.856 478 C 389.385 478, 389 470.125, 389 460.500 L 389 443 384.849 443 L 380.697 443 381.263 460.500 M 584.571 444.571 C 582.484 446.659, 582.584 449.314, 584.829 451.345 C 588.482 454.652, 594 452.639, 594 448 C 594 443.418, 587.932 441.211, 584.571 444.571 M 548.734 450.025 C 542.967 451.480, 537.870 454.441, 533.860 458.665 C 523.550 469.528, 523.836 481.967, 534.646 492.776 C 540.658 498.788, 542 501.313, 542 506.611 C 542 508.972, 542.789 510.880, 544.455 512.545 C 546.733 514.824, 547.626 515, 556.899 515 C 565.892 515, 567.156 514.770, 569.573 512.691 C 571.704 510.858, 572.356 509.262, 572.738 504.941 C 573.175 500.008, 573.713 498.987, 578.504 494 C 581.411 490.975, 584.519 487.045, 585.411 485.267 C 593.501 469.149, 580.055 450.729, 559.290 449.483 C 555.556 449.259, 550.806 449.503, 548.734 450.025 M 549.734 452.029 C 544.181 453.424, 538.916 456.391, 535.301 460.162 C 526.230 469.625, 527.095 484.161, 537.212 492.290 C 542.152 496.260, 544 499.706, 544 504.950 C 544 511.578, 546.257 513, 556.777 513 C 567.560 513, 570 511.725, 570 506.093 C 570 500.142, 571.702 496.673, 576.648 492.539 C 590.394 481.048, 586.841 461.553, 569.613 453.944 C 564.044 451.484, 555.270 450.639, 549.734 452.029 M 352.690 457.715 C 352.430 458.147, 349.244 467.528, 345.609 478.562 L 339 498.624 339 512.312 L 339 526 385.500 526 L 432 526 431.961 512.250 L 431.923 498.500 425.166 478 L 418.409 457.500 408.204 457.215 L 398 456.930 398 460.419 L 398 463.909 404.745 464.204 L 411.489 464.500 416.679 479 C 419.533 486.975, 421.898 494.288, 421.934 495.250 C 421.996 496.886, 419.620 497, 385.500 497 C 356.958 497, 349.004 496.727, 349.017 495.750 C 349.026 495.063, 351.185 487.750, 353.813 479.500 L 358.593 464.500 365.856 464.205 L 373.120 463.910 372.810 460.705 L 372.500 457.500 362.831 457.215 C 357.513 457.058, 352.949 457.283, 352.690 457.715 M 550.635 477.073 C 546.073 480.661, 547.334 487.653, 552.962 489.984 C 555.897 491.200, 556 491.459, 556 497.621 C 556 501.207, 556.438 504, 557 504 C 557.561 504, 558 501.228, 558 497.685 C 558 491.445, 558.042 491.351, 561.523 489.691 C 564.575 488.235, 567 484.835, 567 482.012 C 567 481.540, 565.835 479.769, 564.411 478.077 C 562.263 475.524, 561.093 475, 557.546 475 C 554.734 475, 552.367 475.710, 550.635 477.073 M 551.575 478.918 C 549.260 481.475, 549.902 484.854, 553.163 487.280 C 559.399 491.918, 567.867 483.810, 562.171 478.655 C 559.649 476.372, 553.745 476.519, 551.575 478.918 M 347 511.500 L 347 519 385.500 519 L 424 519 424 511.500 L 424 504 385.500 504 L 347 504 347 511.500 M 407.667 508.667 C 406.319 510.014, 407.056 512.960, 409 514 C 412.823 516.046, 416.734 512.134, 413.800 509.200 C 412.506 507.906, 408.753 507.580, 407.667 508.667 M 543.190 518.750 C 543.491 520.313, 544.964 520.500, 557 520.500 C 569.036 520.500, 570.509 520.313, 570.810 518.750 C 571.118 517.150, 569.935 517, 557 517 C 544.065 517, 542.882 517.150, 543.190 518.750 M 543 523.500 C 543 524.762, 545.222 525, 557 525 C 568.778 525, 571 524.762, 571 523.500 C 571 522.238, 568.778 522, 557 522 C 545.222 522, 543 522.238, 543 523.500 M 543.694 526.639 C 543.312 527.021, 543 527.933, 543 528.667 C 543 529.715, 546.012 530, 557.073 530 C 569.938 530, 571.118 529.850, 570.811 528.250 C 570.515 526.707, 568.930 526.467, 557.432 526.222 C 550.258 526.070, 544.076 526.257, 543.694 526.639 M 549.441 532.532 C 552.118 534.557, 563.312 534.534, 565 532.500 C 566.092 531.184, 565.092 531.004, 556.872 531.032 C 548.413 531.061, 547.689 531.207, 549.441 532.532" stroke="none" fill="#fbfafa" fill-rule="evenodd"/><path d="M 462.500 46.191 C 460.300 50.121, 457.329 55.197, 455.897 57.471 L 453.294 61.606 442.397 62.852 C 436.404 63.537, 429.836 64.355, 427.802 64.669 L 424.103 65.239 434.302 73.734 C 439.911 78.406, 444.643 82.840, 444.818 83.588 C 444.993 84.335, 444.174 89.701, 442.998 95.512 C 441.821 101.323, 441.003 106.460, 441.179 106.929 C 441.356 107.397, 446.900 105.367, 453.500 102.418 C 460.100 99.469, 466.222 97.043, 467.104 97.028 C 467.986 97.013, 474.159 99.475, 480.822 102.500 C 487.485 105.525, 493.128 108, 493.361 108 C 493.595 108, 492.703 102.938, 491.380 96.750 C 490.056 90.563, 489.092 84.765, 489.237 83.866 C 489.381 82.968, 494.154 78.355, 499.841 73.616 C 506.545 68.031, 509.535 64.970, 508.341 64.916 C 507.329 64.869, 500.655 64.080, 493.511 63.162 L 480.522 61.492 474.011 50.271 C 470.430 44.099, 467.275 39.049, 467 39.048 C 466.725 39.047, 464.700 42.262, 462.500 46.191 M 2100 98.437 C 2081.856 102.229, 2069.414 108.513, 2058.394 119.453 C 2045.047 132.703, 2040.278 145.429, 2041.231 165.254 C 2042.028 181.825, 2047.059 192.870, 2059.527 205.424 C 2068.217 214.175, 2079.623 222.030, 2101 233.987 C 2133.543 252.190, 2146.497 262.291, 2151.604 273.446 C 2161.792 295.700, 2152.337 320.170, 2130.449 328.192 C 2122.406 331.139, 2103.711 331.838, 2093.035 329.590 C 2074.295 325.643, 2061.260 315.303, 2052.192 297.189 C 2049.424 291.661, 2046.135 283.957, 2044.883 280.069 C 2042.664 273.178, 2042.522 273, 2039.271 273 C 2037.437 273, 2034.346 273.664, 2032.403 274.476 C 2028.899 275.940, 2028.876 275.991, 2029.520 280.726 C 2032.183 300.280, 2037.290 326.306, 2039.519 331.677 C 2040.703 334.531, 2041.794 335.161, 2050.274 337.877 C 2065.627 342.795, 2078.242 345.046, 2094 345.680 C 2117.672 346.633, 2134.167 343.527, 2152 334.760 C 2161.066 330.304, 2163.745 328.362, 2171.612 320.549 C 2182.707 309.531, 2188.160 299.609, 2190.602 286 C 2193.975 267.200, 2189.216 250.909, 2176.268 236.923 C 2167.529 227.484, 2158.437 221.538, 2131.724 207.795 C 2103.012 193.022, 2092.711 186.560, 2085.175 178.592 C 2063.587 155.765, 2072.784 119.964, 2102.421 111.458 C 2113.867 108.173, 2135.073 109.936, 2144.994 114.997 C 2156.969 121.106, 2160.455 127.801, 2164.780 153 C 2165.526 157.349, 2165.683 157.511, 2169.431 157.820 C 2177.693 158.500, 2177.401 159.015, 2179.387 140.280 C 2180.366 131.051, 2181.955 119.070, 2182.919 113.656 C 2184.133 106.839, 2184.338 103.706, 2183.586 103.468 C 2182.989 103.279, 2174.850 101.904, 2165.500 100.413 C 2144.889 97.125, 2111.150 96.107, 2100 98.437 M 2867 98.445 C 2831.898 103.465, 2803.375 116.534, 2782.954 136.954 C 2759.274 160.634, 2747.653 191.748, 2749.322 227 C 2750.995 262.348, 2762.115 289.354, 2783.414 309.803 C 2809.942 335.270, 2848.278 347.294, 2897.925 345.719 C 2920.762 344.995, 2950.842 339.770, 2957.575 335.359 C 2963.805 331.277, 2978.200 308.428, 2984.103 293.251 C 2987.274 285.099, 2987.290 284.977, 2985.406 282.863 C 2983.673 280.918, 2977.105 277.451, 2976.554 278.191 C 2976.428 278.361, 2973.004 283.450, 2968.944 289.500 C 2959.468 303.622, 2946.631 316.587, 2937.890 320.863 C 2909.597 334.702, 2862.565 329.564, 2834.548 309.572 C 2820.636 299.644, 2807.643 283.303, 2801.028 267.413 C 2786.729 233.064, 2788.152 187.756, 2804.526 156.055 C 2820.736 124.671, 2849.978 109.808, 2892.500 111.339 C 2923.395 112.450, 2944.193 119.844, 2951.391 132.275 C 2954.308 137.310, 2957.455 147.786, 2959.016 157.653 C 2960.272 165.592, 2961.093 166.305, 2967.823 165.304 C 2972.734 164.574, 2973.998 162.684, 2974.010 156.059 C 2974.021 149.517, 2976.407 127.385, 2978.515 114.261 C 2979.332 109.179, 2980 104.844, 2980 104.627 C 2980 104.410, 2976.963 103.911, 2973.250 103.518 C 2969.537 103.125, 2958.625 101.682, 2949 100.312 C 2927.153 97.201, 2882.769 96.191, 2867 98.445 M 2228.750 98.574 C 2228.338 98.991, 2228 100.902, 2228 102.820 C 2228 108.380, 2225.007 133.258, 2222.504 148.500 C 2219.828 164.796, 2219.922 165.080, 2228.238 165.770 L 2233.578 166.213 2237.443 156.356 C 2242.123 144.422, 2248.387 131.671, 2251.711 127.312 C 2253.058 125.546, 2256.173 123.126, 2258.633 121.936 C 2262.871 119.884, 2264.582 119.764, 2291.303 119.635 C 2306.811 119.561, 2320.063 119.864, 2320.750 120.309 C 2323.396 122.021, 2321.692 303.870, 2318.941 313.421 C 2316.530 321.792, 2310.112 324.999, 2291.769 327.002 C 2286.121 327.619, 2280.016 328.345, 2278.202 328.616 L 2274.903 329.109 2275.202 334.729 L 2275.500 340.350 2299 339.925 C 2328.377 339.394, 2344.988 339.390, 2375.758 339.909 C 2389.100 340.134, 2400.302 340.031, 2400.653 339.681 C 2401.003 339.331, 2401.504 336.815, 2401.765 334.090 L 2402.241 329.136 2398.871 328.600 C 2397.017 328.305, 2391.608 327.589, 2386.852 327.008 C 2370.326 324.991, 2363.563 321.659, 2361.093 314.320 C 2359.152 308.553, 2357.938 252.034, 2358.239 181.500 L 2358.500 120.500 2389.323 120.235 C 2418.021 119.989, 2420.449 120.105, 2424.546 121.917 C 2431.536 125.010, 2435.693 134.050, 2437.970 151.114 C 2440.184 167.712, 2439.284 166.002, 2445.795 165.985 C 2448.933 165.976, 2451.980 165.639, 2452.568 165.235 C 2453.155 164.831, 2454.424 157.075, 2455.387 148 C 2456.979 133.008, 2461.019 106.781, 2462.582 101.295 C 2463.456 98.225, 2459.580 97.384, 2453.722 99.373 C 2443.263 102.924, 2437.884 103.088, 2342 102.778 C 2255.006 102.497, 2247.063 102.333, 2242 100.710 C 2234.961 98.455, 2229.704 97.607, 2228.750 98.574 M 1166 102.157 C 1162.425 102.580, 1120.350 102.890, 1072.500 102.847 L 985.500 102.769 984.625 105.817 C 984.143 107.494, 984.024 109.958, 984.359 111.293 C 984.898 113.441, 985.689 113.796, 991.234 114.379 C 1001.456 115.453, 1010.866 117.769, 1013.960 119.971 C 1019.632 124.010, 1019.500 121.608, 1019.500 221 C 1019.500 319.544, 1019.589 317.819, 1014.312 321.969 C 1010.963 324.604, 1006.650 325.782, 994.141 327.479 C 988.444 328.252, 983.569 329.098, 983.307 329.359 C 983.046 329.621, 982.610 331.559, 982.340 333.667 C 981.411 340.904, 981.102 340.836, 1010.666 339.914 C 1025.057 339.465, 1050.482 339.458, 1067.166 339.900 C 1093.932 340.608, 1097.647 340.521, 1098.750 339.160 C 1100.253 337.306, 1100.416 330.375, 1098.978 329.486 C 1098.415 329.139, 1091.424 328.017, 1083.442 326.993 C 1067.987 325.010, 1062.922 323.270, 1059.678 318.829 C 1057.020 315.189, 1055.885 295.766, 1056.234 259.884 L 1056.500 232.500 1090 232.725 C 1108.425 232.849, 1125.404 233.213, 1127.732 233.534 C 1135.084 234.547, 1139.172 240.702, 1143.318 257 L 1144.717 262.500 1149.028 262.816 C 1151.400 262.989, 1154.337 262.881, 1155.556 262.575 L 1157.772 262.019 1158.393 227.760 C 1158.734 208.917, 1159.123 191.703, 1159.257 189.507 L 1159.500 185.514 1155 184.821 C 1146.787 183.556, 1145.419 184.316, 1144.017 190.919 C 1143.338 194.117, 1141.369 199.605, 1139.642 203.113 C 1134.466 213.622, 1135.578 213.343, 1095.062 214.305 C 1076.120 214.754, 1059.511 214.843, 1058.151 214.502 L 1055.680 213.882 1056.296 169.332 C 1056.823 131.286, 1057.141 124.433, 1058.479 122.391 L 1060.046 120 1096.773 120.006 C 1120.544 120.009, 1134.907 120.402, 1137.488 121.118 C 1145.718 123.403, 1149.538 130.413, 1153.774 151 L 1155.522 159.500 1159.931 159.816 C 1168.486 160.429, 1168.702 160.200, 1169.445 149.758 C 1170.583 133.759, 1172.011 120.796, 1173.593 112.097 C 1175.509 101.565, 1175.137 101.078, 1166 102.157 M 1200.383 104.612 C 1200.091 105.773, 1199.998 108.236, 1200.176 110.085 L 1200.500 113.447 1211.494 115.274 C 1223.587 117.283, 1227.400 118.986, 1230.671 123.839 C 1233.679 128.303, 1233.840 131.312, 1234.482 195 C 1235.118 258.158, 1236.008 274.833, 1239.471 288.484 C 1243.041 302.558, 1247.768 310.890, 1257.941 321.041 C 1265.014 328.098, 1268.149 330.393, 1276 334.256 C 1292.362 342.307, 1311.155 345.992, 1335.872 345.997 C 1389.292 346.008, 1423.395 324.408, 1435.330 283 C 1440.868 263.790, 1442.229 247.396, 1444.011 178.500 C 1445.178 133.355, 1445.394 130.716, 1448.364 125.421 C 1451.263 120.253, 1454.933 118.354, 1467.127 115.712 L 1477.500 113.465 1477.824 110.094 C 1478.002 108.240, 1477.909 105.773, 1477.617 104.612 L 1477.087 102.500 1429.920 102.641 C 1391.373 102.756, 1382.595 103.030, 1381.892 104.141 C 1380.839 105.803, 1380.760 111.098, 1381.765 112.591 C 1382.169 113.191, 1387.450 114.434, 1393.500 115.353 C 1399.551 116.271, 1406.200 117.493, 1408.278 118.066 C 1413.376 119.474, 1418.715 124.363, 1420.034 128.832 C 1423.989 142.229, 1423.154 250.301, 1418.934 271.178 C 1414.392 293.648, 1404.069 309.009, 1388.500 316.467 C 1377.297 321.833, 1368.047 323.465, 1349.500 323.348 C 1335.743 323.261, 1332.137 322.888, 1323.776 320.687 C 1291.398 312.167, 1275.818 292.528, 1272.096 255.541 C 1270.613 240.812, 1270.618 132.942, 1272.101 127.500 C 1274.192 119.830, 1278.949 117.130, 1294.281 114.911 C 1298.801 114.257, 1302.831 113.222, 1303.235 112.611 C 1303.639 112, 1303.969 109.925, 1303.969 108 C 1303.969 106.075, 1303.639 104.050, 1303.235 103.500 C 1302.762 102.856, 1284.412 102.500, 1251.706 102.500 L 1200.913 102.500 1200.383 104.612 M 1492.880 104.815 C 1491.816 107.614, 1491.764 111.117, 1492.765 112.556 C 1493.169 113.137, 1498.869 114.403, 1505.431 115.368 C 1523.182 117.981, 1526.185 119.737, 1528.014 128.576 C 1529.593 136.204, 1530.320 224.788, 1529.184 271.170 C 1528.259 308.957, 1527.983 313.251, 1526.217 317.242 C 1523.639 323.071, 1519.505 324.961, 1505.500 326.717 C 1486.818 329.058, 1487.548 328.764, 1487.202 334.088 C 1487.012 337.006, 1487.376 339.013, 1488.202 339.605 C 1488.974 340.158, 1499.826 340.288, 1515 339.926 C 1529.025 339.592, 1563.274 339.734, 1591.109 340.242 C 1653.666 341.384, 1676.637 341.072, 1679.703 339.039 C 1682.701 337.050, 1688.844 323.384, 1694.329 306.500 C 1698.352 294.114, 1704 274.012, 1704 272.076 C 1704 271.126, 1698.228 268.429, 1694.393 267.586 C 1691.323 266.912, 1691.257 266.984, 1687.139 275.566 C 1676.292 298.172, 1663.798 315.603, 1654.931 320.500 L 1649.500 323.500 1619 323.426 C 1600.532 323.381, 1585.625 322.882, 1581.213 322.161 C 1567.414 319.907, 1566.853 318.814, 1565.732 292 C 1564.713 267.642, 1565.772 136.044, 1567.050 128.191 C 1567.540 125.184, 1568.702 121.881, 1569.634 120.852 C 1571.792 118.467, 1578.875 116.367, 1589.854 114.856 C 1594.609 114.202, 1598.831 113.179, 1599.235 112.583 C 1599.639 111.988, 1599.969 109.925, 1599.969 108 C 1599.969 106.075, 1599.639 104.050, 1599.235 103.500 C 1598.761 102.855, 1579.887 102.500, 1546.130 102.500 L 1493.760 102.500 1492.880 104.815 M 1719.854 103.676 C 1719.317 104.323, 1719.018 106.780, 1719.189 109.137 L 1719.500 113.422 1730.837 115.108 C 1745.298 117.260, 1750.548 119.226, 1752.643 123.276 C 1753.547 125.024, 1754.607 130.753, 1755.078 136.436 C 1756.136 149.196, 1756.139 265.779, 1755.081 293 C 1753.874 324.074, 1753.679 324.313, 1727.033 327.416 C 1713.909 328.945, 1713.041 329.387, 1713.015 334.559 C 1712.984 340.759, 1712.613 340.694, 1743.500 339.937 C 1758.900 339.560, 1789.950 339.630, 1812.500 340.091 C 1870.240 341.274, 1899.742 341.146, 1904 339.694 C 1906.994 338.672, 1908.078 337.340, 1911.500 330.469 C 1918.063 317.292, 1931.068 275.225, 1929.689 271.632 C 1929.026 269.904, 1918.982 266.591, 1917.905 267.746 C 1917.519 268.161, 1914.473 273.826, 1911.137 280.335 C 1899.927 302.207, 1888.750 316.974, 1880.228 321.171 C 1875.586 323.458, 1874.956 323.499, 1845.500 323.435 C 1813.910 323.367, 1802.394 322.324, 1798 319.135 C 1792.246 314.959, 1792.500 319.555, 1792.500 219.500 C 1792.500 116.862, 1792.151 122.054, 1799.270 118.676 C 1801.204 117.758, 1807.897 116.191, 1814.143 115.192 L 1825.500 113.376 1825.500 108.101 L 1825.500 102.825 1773.165 102.662 C 1734.099 102.541, 1720.582 102.798, 1719.854 103.676 M 3017.310 103.636 C 3017.070 104.260, 3017.015 106.735, 3017.187 109.136 C 3017.476 113.172, 3017.726 113.522, 3020.500 113.791 C 3029.152 114.629, 3041.566 117.248, 3044.863 118.930 C 3051.682 122.409, 3051.382 119.216, 3052.048 195.500 C 3052.797 281.163, 3052.129 312.017, 3049.407 317.593 C 3046.888 322.754, 3041.028 325.582, 3030 326.958 C 3013.645 328.999, 3015 328.319, 3015 334.486 C 3015 337.454, 3015.338 340.047, 3015.750 340.249 C 3016.162 340.451, 3027.525 340.300, 3041 339.913 C 3054.475 339.526, 3078.550 339.544, 3094.500 339.953 C 3127.173 340.791, 3126 341.037, 3126 333.354 C 3126 329.315, 3125.829 329.064, 3122.750 328.584 C 3097.185 324.596, 3095.002 323.880, 3091.831 318.450 C 3088.208 312.247, 3087.917 303.921, 3088.212 215 C 3088.492 130.803, 3088.553 128.394, 3090.500 124.500 C 3093.084 119.332, 3096.803 117.579, 3110 115.307 L 3120.500 113.500 3120.500 108.125 L 3120.500 102.750 3069.123 102.625 C 3031.602 102.534, 3017.628 102.806, 3017.310 103.636 M 3157.542 103 C 3156.517 104.928, 3156.139 109.201, 3156.829 111.066 C 3157.535 112.975, 3159.239 113.617, 3168.598 115.505 C 3185.217 118.856, 3188.145 120.956, 3185.883 127.903 C 3183.690 134.633, 3178.041 141.639, 3155.625 165.429 C 3133.775 188.618, 3111.078 208.430, 3097.750 215.948 C 3089.977 220.332, 3090.090 221.956, 3098.768 230.689 C 3102.491 234.435, 3113.397 246.275, 3123.004 257 C 3132.611 267.725, 3152.403 288.433, 3166.986 303.018 C 3193.424 329.460, 3199.230 334.246, 3208.919 337.584 C 3215.123 339.722, 3232.609 340.998, 3255.693 340.999 C 3276.461 341, 3276.918 340.955, 3278.443 338.777 C 3280.136 336.361, 3280.552 330.459, 3279.093 329.558 C 3278.595 329.250, 3273.712 328.538, 3268.244 327.977 C 3249.116 326.014, 3242.509 323.195, 3226.180 310.028 C 3203.274 291.559, 3147.634 234.964, 3132.747 214.993 L 3130.133 211.486 3173.904 168.378 C 3224.046 118.996, 3222.932 119.834, 3244.030 115.580 C 3255.178 113.332, 3255.447 113.214, 3256.218 110.237 C 3256.652 108.563, 3256.651 106.232, 3256.217 105.057 L 3255.427 102.921 3206.618 102.710 C 3179.773 102.595, 3157.689 102.725, 3157.542 103 M 2588.142 108.202 C 2584.896 122.269, 2524.980 269.650, 2510.168 300 C 2502.802 315.093, 2496.426 321.861, 2486.761 324.847 C 2483.139 325.965, 2477.323 327.192, 2473.837 327.572 C 2464.959 328.540, 2464 329.207, 2464 334.413 C 2464 336.801, 2464.563 339.180, 2465.250 339.700 C 2466.017 340.280, 2474.611 340.353, 2487.500 339.889 C 2499.050 339.473, 2520.425 339.470, 2535 339.883 C 2564.869 340.728, 2564 340.923, 2564 333.354 C 2564 329.196, 2563.908 329.077, 2560.250 328.520 C 2542.170 325.766, 2536.154 324.011, 2532.595 320.452 C 2529.961 317.818, 2530.619 309.891, 2534.412 298.558 C 2540.229 281.172, 2552.996 249.564, 2554.731 248.250 C 2557.115 246.446, 2628.890 246.446, 2631.259 248.250 C 2634.508 250.726, 2658.478 314.720, 2657.818 319.158 C 2657.252 322.964, 2652.890 325.061, 2641.514 326.998 C 2635.473 328.026, 2630.337 329.422, 2629.849 330.168 C 2629.115 331.292, 2629.599 338.402, 2630.519 340 C 2630.677 340.275, 2643.009 340.198, 2657.923 339.828 C 2672.837 339.458, 2696.325 339.458, 2710.119 339.828 C 2738.303 340.583, 2737 340.909, 2737 333.111 C 2737 329.237, 2736.863 329.069, 2733.250 328.499 C 2713.499 325.384, 2708.765 323.696, 2703.528 317.899 C 2698.933 312.814, 2692.640 300.116, 2682.511 275.498 C 2668.008 240.247, 2621.627 119.418, 2618.600 109 L 2617.002 103.500 2603.115 103.500 L 2589.227 103.500 2588.142 108.202 M 302.512 119.581 C 299.219 125.394, 296.069 130.495, 295.512 130.917 C 294.955 131.340, 289.325 132.248, 283 132.936 C 263.915 135.013, 264.552 133.938, 276.560 143.806 C 282.342 148.558, 287 153.143, 287 154.083 C 287 155.016, 286.100 160.154, 285 165.500 C 283.900 170.846, 283 175.823, 283 176.561 C 283 177.456, 286.740 176.188, 294.250 172.749 C 300.973 169.670, 306.909 167.597, 309 167.597 C 311.091 167.597, 317.027 169.670, 323.750 172.749 C 331.260 176.188, 335 177.456, 335 176.561 C 335 175.823, 334.100 170.846, 333 165.500 C 331.900 160.154, 331 155.032, 331 154.119 C 331 153.205, 335.740 148.572, 341.534 143.822 L 352.067 135.187 348.284 134.606 C 346.203 134.287, 340.450 133.551, 335.500 132.970 C 330.550 132.390, 325.520 131.709, 324.323 131.457 C 322.798 131.136, 320.253 127.710, 315.823 120.016 C 312.345 113.976, 309.275 109.029, 309 109.023 C 308.725 109.017, 305.805 113.768, 302.512 119.581 M 620.500 116.191 C 618.300 120.121, 615.330 125.195, 613.900 127.466 L 611.301 131.595 598.900 132.926 C 592.080 133.657, 585.651 134.568, 584.614 134.950 C 583.053 135.525, 584.474 137.090, 592.864 144.036 C 598.439 148.651, 603 153.169, 603 154.074 C 603 154.980, 602.067 160.297, 600.926 165.889 C 599.786 171.482, 598.998 176.447, 599.176 176.924 C 599.354 177.401, 605.266 175.194, 612.313 172.020 L 625.126 166.249 638.111 172.125 C 645.253 175.356, 651.239 178, 651.414 178 C 651.589 178, 650.657 172.713, 649.343 166.250 C 648.029 159.787, 647.077 153.989, 647.227 153.365 C 647.377 152.740, 652.107 148.391, 657.739 143.700 L 667.977 135.172 664.239 134.599 C 662.182 134.283, 656.450 133.551, 651.500 132.970 C 646.550 132.390, 641.530 131.711, 640.345 131.462 C 638.848 131.148, 636.253 127.652, 631.845 120.013 C 628.355 113.964, 625.275 109.023, 625 109.031 C 624.725 109.039, 622.700 112.262, 620.500 116.191 M 450.988 137.582 C 442.470 146.153, 431.225 156.774, 426 161.185 C 396.232 186.316, 358.237 203.927, 313.432 213.362 C 287.185 218.889, 280.041 219.506, 243.250 219.422 C 218.047 219.364, 209 219.647, 209 220.494 C 209 221.127, 207.878 229.255, 206.506 238.556 C 197.569 299.173, 203.968 371.613, 223.608 432.123 C 250.029 513.529, 298.710 578.241, 368.221 624.360 C 394.309 641.668, 417.918 653.766, 450.696 666.621 L 466.991 673.012 479.745 668.130 C 539.695 645.183, 585.591 615.824, 625.521 574.878 C 654.276 545.392, 676.796 512.567, 693.905 475.204 C 726.417 404.200, 738.882 315.627, 727.362 237.457 L 724.703 219.415 690.602 219.457 C 662.594 219.492, 654.356 219.176, 644.500 217.687 C 608.449 212.241, 578.464 203.235, 551.581 189.778 C 527.745 177.845, 512.526 166.430, 486.895 141.255 C 476.112 130.665, 467.106 122, 466.883 122 C 466.659 122, 459.506 129.012, 450.988 137.582 M 2592.712 144.663 C 2592.013 145.802, 2570.755 201.833, 2565.861 215.434 C 2563.698 221.448, 2562.155 226.961, 2562.432 227.684 C 2562.834 228.732, 2569.143 229, 2593.410 229 C 2610.592 229, 2624.127 228.604, 2624.443 228.092 C 2625.281 226.737, 2596.176 146.776, 2594.084 144.684 C 2593.612 144.212, 2592.995 144.202, 2592.712 144.663 M 453.689 160.524 C 432.929 180.678, 414.325 193.676, 388.500 206.066 C 346.343 226.292, 300.618 236.381, 250.749 236.462 L 226.999 236.500 226.497 239.500 C 223.369 258.208, 221.669 287.209, 222.511 307.500 C 225.671 383.644, 243.736 448.303, 277.551 504.500 C 311.040 560.155, 362.256 606.146, 424.500 636.457 C 441.738 644.851, 463.903 654, 467.002 654 C 469.503 654, 491.087 645.304, 506.154 638.225 C 529.394 627.307, 558.862 608.903, 579.500 592.417 C 593.512 581.224, 620.305 554.510, 630.740 541.330 C 662.997 500.583, 684.733 456.344, 697.970 404.500 C 708.695 362.495, 713.487 315.365, 711.164 274.742 C 710.140 256.834, 709.164 247.434, 707.455 239 L 706.948 236.500 683.224 236.456 C 649.785 236.394, 623.395 232.670, 591.485 223.511 C 545.896 210.427, 511.262 190.598, 478.389 158.761 C 472.278 152.842, 467.103 148.019, 466.889 148.043 C 466.675 148.067, 460.735 153.683, 453.689 160.524 M 459 175.147 C 411.915 219.425, 337.437 247.100, 258.363 249.704 L 240.226 250.301 239.627 255.400 C 238.191 267.626, 237.777 307.265, 238.914 323.500 C 244.005 396.167, 264.061 458.462, 299.403 511.384 C 333.806 562.900, 384.061 604.410, 444 630.819 C 451.425 634.090, 459.750 637.559, 462.500 638.527 L 467.500 640.287 477.500 636.247 C 509.678 623.247, 541.948 604.594, 568 583.934 C 581.667 573.096, 608.500 546.322, 619.047 533 C 671.334 466.952, 698.080 380.039, 695.661 284.039 C 695.321 270.542, 694.757 257.430, 694.408 254.900 L 693.774 250.301 675.637 249.704 C 623.722 247.994, 573.279 235.531, 531.058 213.983 C 511.191 203.842, 493.072 191.363, 476.309 176.274 C 471.253 171.723, 466.978 168.021, 466.809 168.047 C 466.639 168.073, 463.125 171.268, 459 175.147 M 462.946 174.597 C 457.263 180.530, 440.221 193.887, 428.500 201.596 C 381.388 232.584, 318.961 250.357, 250.500 252.276 L 242.500 252.500 241.670 259.500 C 240.383 270.354, 240.519 319.066, 241.875 333 C 247.122 386.915, 259.685 432.579, 280.879 474.769 C 317.189 547.051, 377.587 601.599, 457.713 634.474 L 466.927 638.254 475.213 634.968 C 497.690 626.055, 520.163 614.190, 542.500 599.443 C 561.588 586.841, 575.891 575.147, 592.551 558.522 C 649.813 501.381, 682.932 426.708, 692.131 334 C 693.570 319.502, 693.886 275.968, 692.657 261.750 L 691.813 252 681.961 252 C 649.196 252, 602.711 244.065, 570.588 232.988 C 532.358 219.806, 499.156 200.577, 473.366 176.683 C 469.993 173.557, 467.044 171, 466.813 171 C 466.581 171, 464.842 172.619, 462.946 174.597 M 463.245 279.250 L 463.500 374.500 569.681 374.755 C 670.170 374.995, 675.891 374.915, 676.390 373.255 C 678.734 365.460, 684.587 311.882, 685.653 288.463 L 686.291 274.426 673.396 273.152 C 598.063 265.709, 528.649 237.795, 476.172 193.840 C 469.752 188.463, 464.160 184.049, 463.745 184.032 C 463.330 184.014, 463.105 226.862, 463.245 279.250 M 350.500 262.049 C 334.183 264.211, 319.204 271.576, 307.854 283.018 C 293.407 297.580, 288.119 315.153, 292.540 333.907 C 294.906 343.945, 299.473 351.565, 308.574 360.665 C 315.283 367.371, 318.417 369.643, 326.121 373.381 C 339.184 379.720, 346.764 381.400, 362 381.334 C 384.183 381.237, 400.117 374.945, 414.617 360.555 C 426.656 348.608, 432 336.600, 432 321.500 C 432 306.443, 426.697 294.588, 414.546 282.485 C 398.127 266.130, 375.114 258.787, 350.500 262.049 M 523 268.528 C 507.875 272.577, 494.488 276.148, 493.250 276.464 C 489.651 277.383, 490.608 279.802, 495.103 281.149 C 498.851 282.272, 499.349 282.201, 500.853 280.330 C 502.093 278.787, 508.757 276.643, 527.844 271.647 L 553.189 265.012 578.088 271.756 C 591.782 275.465, 602.990 278.729, 602.993 279.008 C 602.997 279.288, 591.784 282.464, 578.075 286.066 L 553.150 292.616 538.940 288.743 C 528.889 286.004, 524.418 285.182, 523.665 285.935 C 521.746 287.854, 524.436 289.118, 538.961 293.127 L 553.095 297.028 583.446 289.014 C 600.139 284.606, 614.068 281, 614.399 281 C 616.024 281, 614.717 277.838, 612.750 277.011 C 608.460 275.206, 554.907 261, 552.709 261.084 C 551.494 261.130, 538.125 264.480, 523 268.528 M 345.856 265.447 C 310.728 272.785, 287.780 303.698, 295.489 333.297 C 298.088 343.274, 302.663 350.919, 310.876 359.011 C 322.140 370.107, 336.785 377, 352.523 378.613 L 359 379.276 359 356.731 L 359 334.186 354 330 L 349 325.814 349 312.859 C 349 300.008, 348.978 299.885, 346.286 297.570 C 343.862 295.484, 343.698 294.959, 344.752 292.645 C 346.127 289.627, 350.165 288.299, 353.435 289.788 C 356.592 291.227, 357.216 294.456, 354.903 297.396 C 353.123 299.660, 352.070 309, 353.596 309 C 353.923 309, 355.498 308.069, 357.096 306.932 C 359.853 304.968, 360 304.490, 360 297.467 C 360 291.180, 359.710 289.915, 358.068 289.036 C 353.873 286.791, 354.412 281.900, 359.066 279.973 C 361.505 278.963, 362.403 279.034, 364.494 280.404 C 367.325 282.259, 367.830 286.067, 365.500 288 C 364.385 288.925, 364 291.395, 364 297.612 L 364 305.980 358.500 309.631 L 353 313.283 353.031 319.392 C 353.058 324.629, 353.397 325.743, 355.408 327.204 C 357.702 328.870, 357.856 328.814, 362.377 324.663 L 367 320.419 367 309.730 L 367 299.041 371.490 294.903 C 375.035 291.635, 375.858 290.282, 375.403 288.469 C 375.012 286.913, 375.499 285.501, 376.913 284.087 C 380.769 280.231, 387 282.039, 387 287.012 C 387 290.296, 383.120 293.644, 380.485 292.633 C 379.554 292.275, 377.399 293.451, 374.978 295.639 L 371 299.233 371 310.500 L 371 321.766 366.531 325.133 L 362.062 328.500 362.031 353.897 L 362 379.293 369.298 378.677 C 385.942 377.270, 400.644 370.432, 412.583 358.547 C 424.206 346.975, 428.964 336.136, 428.988 321.176 C 429.003 312.256, 425.580 301.220, 420.362 293.357 C 412.400 281.362, 396.658 270.453, 381.500 266.426 C 373.212 264.224, 354.210 263.702, 345.856 265.447 M 345 268.551 C 341.425 269.317, 334.342 271.998, 329.260 274.510 C 312.201 282.942, 300.806 297.365, 297.983 314.099 C 293.853 338.587, 310.834 363.299, 338.010 372.347 C 342.129 373.718, 347.637 375.152, 350.250 375.534 L 355 376.227 354.952 358.364 L 354.904 340.500 347.465 334.500 L 340.025 328.500 340.013 320.365 C 340.001 312.784, 340.170 312.118, 342.500 310.592 C 347.162 307.537, 344.667 302, 338.629 302 C 336.853 302, 334.860 302.540, 334.200 303.200 C 332.367 305.033, 332.769 308.822, 335 310.732 C 336.355 311.892, 337 313.682, 337 316.279 L 337 320.113 334 318.341 C 331.088 316.621, 331 316.347, 331 309.025 C 331 302.489, 331.275 301.309, 333.062 300.193 C 336.035 298.337, 335.306 293.899, 331.750 292.203 C 329.481 291.120, 328.519 291.120, 326.250 292.203 C 322.694 293.899, 321.965 298.337, 324.938 300.193 C 326.745 301.322, 327 302.483, 327 309.591 L 327 317.701 332 320.809 C 336.187 323.412, 337 324.402, 337 326.900 C 337 328.540, 337.450 330.160, 338 330.500 C 340.136 331.820, 338.830 333, 335.232 333 C 329.829 333, 321.648 326.240, 321.561 321.703 C 321.479 317.435, 317.397 315.221, 313.262 317.203 C 309.924 318.803, 309.306 321.292, 311.440 324.549 C 312.578 326.285, 313.958 327, 316.172 327 C 318.400 327, 320.867 328.292, 324.764 331.500 C 330.088 335.883, 330.412 336, 337.221 336 C 343.523 336, 344.596 336.304, 348.106 339.084 L 352 342.168 352 357.603 L 352 373.038 349.250 372.419 C 340.795 370.515, 337.828 369.520, 331.243 366.379 C 322.965 362.431, 312.844 353.549, 307.971 345.955 C 301.102 335.250, 299.097 320.294, 302.895 308.091 C 308.258 290.858, 325.258 276.313, 345.707 271.461 C 356.356 268.934, 373.945 269.766, 383.835 273.264 C 399.362 278.756, 411.470 288.988, 417.826 301.986 C 421.439 309.376, 421.500 309.700, 421.500 321.552 C 421.500 333.476, 421.460 333.685, 417.727 341.238 C 409.768 357.342, 392.369 369.519, 372.861 372.638 C 369.828 373.123, 369 372.935, 369 371.763 C 369 370.738, 371.269 369.723, 376.250 368.522 C 416.981 358.702, 432.014 317.330, 404.734 290.134 C 370.484 255.990, 304.900 276.576, 304.900 321.471 C 304.900 342.382, 319.198 359.726, 342.815 367.463 C 347.882 369.123, 350.441 368.959, 348.433 367.104 C 347.920 366.630, 345.700 365.683, 343.500 364.999 C 335.867 362.629, 326.183 356.835, 320.604 351.300 C 303.201 334.036, 303.481 308.379, 321.257 291.309 C 332.132 280.866, 345.288 275.782, 361.500 275.756 C 398.179 275.697, 423.968 305.757, 412.859 335.619 C 408.121 348.354, 396.520 358.960, 381.676 364.127 C 368.430 368.738, 369 369.148, 369 355 L 369 343 374.375 343 C 378.373 343, 381.689 342.117, 387.314 339.553 C 393.026 336.950, 395.716 336.242, 398.302 336.662 C 403.356 337.482, 406.189 335.610, 405.808 331.702 C 405.577 329.331, 404.845 328.307, 402.890 327.624 C 398.932 326.241, 395.142 327.586, 394.374 330.645 C 393.859 332.697, 392.119 333.999, 386.293 336.691 C 382.209 338.578, 377.952 339.982, 376.832 339.811 C 375.390 339.590, 378.683 337.014, 388.149 330.955 L 401.500 322.410 401.793 314.019 C 402.041 306.940, 402.402 305.407, 404.101 304.217 C 406.948 302.222, 406.248 297.980, 402.750 296.032 C 400.280 294.656, 399.720 294.656, 397.250 296.033 C 393.801 297.957, 393.254 301.254, 395.939 303.939 C 397.653 305.653, 398 307.259, 398 313.481 L 398 320.962 387.954 327.481 C 382.429 331.066, 377.704 334, 377.454 334 C 377.204 334, 377 331.845, 377 329.211 C 377 324.477, 377.063 324.384, 382.500 321.089 C 387.400 318.120, 388 317.392, 388 314.423 C 388 312.206, 388.833 310.258, 390.490 308.601 C 392.125 306.966, 392.764 305.491, 392.350 304.306 C 390.791 299.834, 385.373 298.627, 382 302 C 379.395 304.605, 379.476 305.567, 382.557 308.647 C 386.550 312.641, 385.591 315.794, 379.268 319.464 L 374.035 322.500 374.016 329.500 L 373.996 336.500 369.498 339.342 L 365 342.184 365 359.092 L 365 376 368.340 376 C 370.177 376, 375.240 375.103, 379.590 374.007 C 409.757 366.407, 429.533 340.534, 425.193 314.345 C 423.777 305.799, 418.422 294.798, 412.439 288.143 C 403.983 278.738, 388.859 270.510, 375.566 268.083 C 367.573 266.624, 352.954 266.848, 345 268.551 M 525.500 279.026 C 515.050 279.992, 506.365 280.832, 506.200 280.892 C 506.035 280.951, 506.035 283.587, 506.200 286.750 C 506.460 291.733, 506.767 292.500, 508.500 292.500 C 510.122 292.500, 510.556 291.734, 510.798 288.453 L 511.095 284.405 532.798 282.603 C 545.615 281.539, 554.780 280.350, 555.184 279.698 C 557.169 276.497, 553.686 276.418, 525.500 279.026 M 520 300.405 C 520 309.807, 520.041 309.970, 522.750 311.360 C 528.324 314.221, 537.495 315.410, 554 315.410 C 570.421 315.411, 581.096 313.825, 584.677 310.853 C 585.593 310.093, 586 307.014, 586 300.846 C 586 293.600, 585.701 291.823, 584.399 291.323 C 581.922 290.372, 581.032 292.858, 581.015 300.775 C 580.997 309.547, 581.242 309.388, 565.106 311.077 C 554.284 312.210, 536.263 311.274, 528.500 309.175 C 525.524 308.371, 525.496 308.297, 525 299.932 C 524.537 292.126, 524.333 291.476, 522.250 291.180 C 520.052 290.868, 520 291.079, 520 300.405 M 501.814 297.510 C 500.831 299.667, 500.998 300.369, 503.009 302.510 C 505.870 305.555, 510.231 305.769, 513 303 C 516.336 299.664, 515.031 295, 510.762 295 C 509.354 295, 508.992 295.643, 509.212 297.750 C 509.412 299.656, 509.039 300.500, 508 300.500 C 506.961 300.500, 506.588 299.656, 506.788 297.750 C 507.018 295.547, 506.666 295, 505.016 295 C 503.788 295, 502.496 296.013, 501.814 297.510 M 503.169 307.309 C 502.632 307.964, 501.873 311.087, 501.481 314.250 L 500.770 320 508 320 L 515.230 320 514.519 314.250 C 513.726 307.844, 512.603 305.831, 510.314 306.710 C 509.141 307.160, 508.891 308.337, 509.264 311.650 C 509.677 315.317, 509.479 316, 508 316 C 506.521 316, 506.323 315.317, 506.736 311.650 C 507.109 308.337, 506.859 307.160, 505.686 306.710 C 504.839 306.385, 503.707 306.655, 503.169 307.309 M 492.002 327.234 C 488.419 329.044, 487.131 330.440, 485.606 334.171 C 483.911 338.314, 483.841 339.359, 484.981 343.431 C 487.970 354.107, 499.249 361.769, 516.119 364.583 L 525.738 366.188 532.787 363.645 C 546.882 358.561, 572.536 358.066, 597.450 362.399 C 602.645 363.302, 605.222 363.378, 605.952 362.648 C 607.696 360.904, 607.199 360.346, 602.250 358.490 C 599.638 357.510, 595.446 355.684, 592.935 354.431 C 588.083 352.011, 585.204 352.484, 586.366 355.510 C 586.850 356.772, 586.620 357.068, 585.493 356.636 C 584.652 356.313, 578.010 355.758, 570.732 355.402 C 555.453 354.656, 541.450 356.054, 533.100 359.161 C 515.558 365.686, 489.500 353.932, 489.500 339.494 C 489.500 328.508, 502.208 325.772, 512.028 334.645 C 517.184 339.302, 518.373 344.470, 514.931 347.257 C 511.913 349.701, 507.591 348.941, 503.786 345.295 C 500.732 342.369, 500.156 339.261, 502.500 338.362 C 504.760 337.494, 504.390 334, 502.039 334 C 499.528 334, 495.999 337.765, 496.004 340.439 C 496.011 344.293, 499.874 349.057, 504.738 351.209 C 509.382 353.263, 509.522 353.265, 520.462 351.504 C 534.616 349.224, 568.956 348.372, 582 349.976 C 587.225 350.619, 594.650 351.384, 598.500 351.676 C 605.057 352.175, 605.651 352.047, 607.882 349.650 C 612.644 344.533, 609.192 333.395, 601.144 327.910 C 597.610 325.501, 597.597 325.500, 575.554 326 C 544.029 326.715, 519.121 326.618, 506.994 325.734 C 497.226 325.022, 496.173 325.128, 492.002 327.234 M 568 330.041 C 561.675 330.424, 547.406 330.796, 536.291 330.868 L 516.083 331 519.162 335.953 C 521.431 339.604, 522.119 341.734, 521.779 344.056 C 521.316 347.205, 521.317 347.205, 525.167 346.589 C 542.749 343.778, 573.756 344.022, 594.075 347.133 C 603.722 348.610, 605.001 348.158, 604.996 343.281 C 604.992 338.600, 602.055 333.614, 597.759 330.995 C 594.204 328.827, 590.199 328.699, 568 330.041 M 150.221 375.233 C 145.348 381.106, 142.451 395.775, 143.975 406.864 C 145.013 414.416, 149.331 425.077, 151.625 425.752 C 153.070 426.177, 155.479 420.135, 157.051 412.147 C 159.963 397.346, 154.842 369.666, 150.221 375.233 M 780.085 378.108 C 774.812 389.945, 774.967 410.412, 780.428 423.482 L 782.038 427.336 784.562 423.918 C 788.631 418.408, 790.460 410.747, 790.391 399.500 C 790.326 388.971, 788.136 380.830, 784.012 375.791 L 782.137 373.500 780.085 378.108 M 282.577 425.250 C 289.321 463.193, 302.466 501.584, 315.687 521.954 C 322.810 532.930, 341.906 552.074, 356.438 562.811 C 376.913 577.938, 406.555 594.294, 436.435 606.953 C 450.637 612.970, 475.011 622, 477.048 622 C 477.645 622, 478 583.928, 478 520 L 478 418 379.644 418 L 281.288 418 282.577 425.250 M 578.250 418.975 C 577.013 419.503, 576 420.556, 576 421.314 C 576 422.403, 578.258 422.681, 586.750 422.640 C 595.571 422.597, 598.309 422.958, 602.008 424.654 C 612.235 429.344, 618.350 437.627, 618.444 446.918 C 618.475 449.988, 618.151 453.747, 617.725 455.272 C 617.135 457.384, 617.332 458.190, 618.553 458.659 C 621.366 459.738, 623.185 456.567, 623.743 449.607 C 624.224 443.627, 623.971 442.384, 621.087 436.526 C 615.207 424.581, 605.332 418.796, 590 418.313 C 584.775 418.148, 579.487 418.446, 578.250 418.975 M 170.384 426.914 C 165.075 429.323, 161.085 434.631, 158.437 442.803 L 156.322 449.330 154.213 439.415 L 152.104 429.500 152.670 439.500 L 153.237 449.500 149.086 443.325 C 142.484 433.504, 136.482 429, 129.998 429 C 127.252 429, 127.149 429.165, 127.653 432.750 C 128.991 442.257, 133.414 451.274, 139.938 457.789 C 143.833 461.679, 149.976 465, 153.276 465 C 155.465 465, 155.860 465.923, 158.852 478.011 C 160.622 485.167, 162.354 491.760, 162.700 492.661 C 163.046 493.563, 159.541 490.521, 154.912 485.900 C 145.713 476.721, 136.971 471.332, 129.850 470.452 C 123.008 469.606, 122.325 470.602, 124.426 478.365 C 128.189 492.265, 142.892 510.375, 155.372 516.481 C 158.953 518.233, 163.291 519.414, 167.339 519.739 C 173.361 520.223, 173.747 520.410, 174.824 523.374 C 175.950 526.472, 186.091 545.116, 189.650 550.633 L 191.500 553.500 189 551.754 C 176.190 542.806, 167.615 537.598, 161.158 534.841 C 154.636 532.058, 152.283 531.567, 145.303 531.536 C 140.763 531.516, 136.626 531.978, 136.032 532.570 C 134.546 534.053, 139.825 544.062, 146.655 552.710 C 161.075 570.971, 183.764 584, 201.145 584 C 204.294 584, 208.053 583.550, 209.500 583 C 211.828 582.115, 212.432 582.373, 214.766 585.250 C 216.216 587.038, 222.825 594.059, 229.451 600.854 L 241.500 613.209 233.500 609.247 C 204.577 594.924, 178.935 590.388, 169.151 597.863 L 166.802 599.658 171.785 605.579 C 185.380 621.732, 204.817 634.636, 226 641.574 C 233.589 644.060, 236.001 644.366, 248.500 644.429 C 261.964 644.497, 262.685 644.395, 267.341 641.769 L 272.182 639.039 281.841 645.845 C 311.110 666.468, 348.881 686.045, 380.873 697.174 C 385.479 698.776, 389.376 699.955, 389.534 699.793 C 389.692 699.632, 385.474 697.512, 380.161 695.081 C 348.805 680.741, 306.943 655.526, 281.856 635.871 L 278.500 633.241 280.769 629.200 C 287.511 617.195, 284.881 597.527, 273.455 574.500 C 267.606 562.712, 258.181 549.601, 255.256 549.183 C 251.759 548.683, 243.706 557.369, 241.465 564.058 C 238.739 572.195, 239.121 583.520, 242.459 593.509 C 243.928 597.904, 245.825 602.573, 246.676 603.885 C 248.218 606.262, 248.215 606.264, 245.877 604.626 C 244.587 603.723, 238.256 597.254, 231.809 590.251 L 220.087 577.519 222.429 575.009 C 227.887 569.162, 230.103 561.377, 230.087 548.100 C 230.081 542.699, 229.344 534.730, 228.449 530.390 C 226.760 522.191, 222.001 508.752, 219.649 505.534 C 218.337 503.740, 218.143 503.753, 213.645 505.930 C 207.955 508.684, 203.599 513.792, 200.984 520.775 C 198.543 527.295, 197.553 537.941, 198.802 544.250 C 199.319 546.862, 199.628 549, 199.488 549 C 198.954 549, 190.974 536.095, 186.016 527.214 L 180.832 517.929 184.875 514.006 C 192.472 506.633, 196.206 495.559, 196.341 480 C 196.448 467.641, 194.616 459, 191.889 459 C 188.509 459, 182.366 462.754, 178.659 467.086 C 174.909 471.467, 171.010 481.300, 170.985 486.444 C 170.946 494.087, 169.169 491.807, 164.690 478.368 L 160.095 464.580 162.797 463.417 C 170.842 459.958, 177.500 444.768, 176.804 431.464 C 176.637 428.271, 176.050 425.520, 175.500 425.352 C 174.950 425.184, 172.648 425.887, 170.384 426.914 M 757.667 425.667 C 756.626 426.708, 756.883 436.344, 758.109 442.201 C 760.174 452.073, 768.236 464, 772.844 464 C 773.480 464, 774 464.233, 774 464.517 C 774 465.448, 765.845 489.455, 765.040 490.893 C 764.547 491.774, 763.813 489.738, 763.060 485.397 C 760.967 473.337, 755.772 464.965, 747.885 460.941 C 741.493 457.680, 740.315 458.182, 738.928 464.750 C 734.700 484.774, 740.851 509.645, 751.555 515.801 C 753.418 516.873, 753.313 517.281, 749.062 525.498 C 744.387 534.536, 733.376 551.909, 734.476 548.512 C 735.924 544.040, 736.193 533.824, 735.025 527.635 C 732.895 516.345, 724.427 505.561, 717.066 504.764 C 714.912 504.530, 714.267 505.363, 711.462 512 C 705.812 525.369, 704.508 532.021, 704.504 547.500 C 704.500 563.121, 705.313 566.637, 710.507 573.442 L 713.831 577.795 702.555 590.148 C 696.354 596.941, 690.037 603.625, 688.517 605 L 685.754 607.500 687.776 603.488 C 694.043 591.051, 696.151 574.331, 692.704 564.391 C 690.730 558.695, 685.791 552.409, 681.198 549.744 L 678.171 547.988 673.695 553.631 C 659.637 571.352, 649.925 595.652, 649.829 613.345 C 649.786 621.213, 650.103 622.815, 652.700 627.845 L 655.620 633.500 645.060 641.373 C 618.502 661.171, 575.536 686.253, 548.789 697.571 C 545.098 699.133, 542.218 700.552, 542.390 700.724 C 542.939 701.272, 562.235 694.269, 575.081 688.859 C 600.138 678.307, 628.166 662.806, 650.680 647.050 L 661.851 639.232 667.175 641.866 C 672.158 644.331, 673.368 644.496, 686 644.440 C 697.972 644.388, 700.462 644.066, 708 641.596 C 729.486 634.556, 750.882 620.211, 763.267 604.544 L 767.194 599.575 765.066 597.852 C 756.373 590.813, 731.637 594.638, 705.063 607.131 L 694.626 612.037 701.593 604.769 C 705.425 600.771, 711.622 594.055, 715.364 589.844 C 721.939 582.446, 722.275 582.219, 725.328 583.094 C 742.104 587.905, 770.728 574.043, 786.936 553.256 C 794.266 543.856, 799.480 534.079, 797.968 532.570 C 797.374 531.978, 793.237 531.516, 788.697 531.536 C 781.717 531.567, 779.364 532.058, 772.842 534.841 C 766.410 537.587, 755.948 543.953, 745.142 551.697 C 743.197 553.091, 743.503 552.214, 746.891 546.678 C 749.149 542.989, 753.252 535.477, 756.008 529.985 L 761.018 520 764.850 520 C 781.686 520, 802.993 500.490, 809.451 479.160 C 811.948 470.915, 811.279 469.570, 805.047 470.308 C 796.400 471.332, 787.472 477.006, 776.644 488.360 C 773.423 491.737, 771.109 493.600, 771.502 492.500 C 771.895 491.400, 773.631 484.812, 775.359 477.861 L 778.500 465.221 782.165 464.717 C 792.690 463.270, 803.796 448.658, 806.462 432.750 C 807.075 429.091, 807.016 429, 804.005 429 C 797.477 429, 790.403 434.588, 783.795 444.966 L 780.907 449.500 781.436 440 L 781.964 430.500 780.054 439 C 779.004 443.675, 778.073 448.175, 777.987 449 C 777.901 449.825, 777.272 448.250, 776.591 445.500 C 774.112 435.495, 769.698 429.443, 762.768 426.548 C 758.520 424.772, 758.555 424.779, 757.667 425.667 M 582.166 431.001 C 577.895 432.825, 580.306 434.474, 588.079 435.046 C 599.135 435.859, 604.359 440.391, 603.973 448.836 C 603.715 454.508, 603.868 455, 605.893 455 C 608.207 455, 609 453.125, 609 447.653 C 609 438.418, 601.164 431.178, 590.343 430.416 C 587.129 430.189, 583.450 430.453, 582.166 431.001 M 381.263 460.500 C 381.574 470.125, 381.498 478, 381.094 478 C 380.690 478, 378.446 476.362, 376.107 474.359 L 371.854 470.719 369.177 472.717 C 367.705 473.817, 366.500 475.205, 366.500 475.803 C 366.500 476.401, 370.772 480.490, 375.994 484.890 C 385.212 492.657, 385.547 492.839, 387.494 491.141 C 390.495 488.525, 404.425 476.636, 405 476.200 C 405.275 475.991, 404.188 474.772, 402.585 473.491 L 399.669 471.161 395.191 474.581 C 392.728 476.461, 390.327 478, 389.856 478 C 389.385 478, 389 470.125, 389 460.500 L 389 443 384.849 443 L 380.697 443 381.263 460.500 M 584.571 444.571 C 582.484 446.659, 582.584 449.314, 584.829 451.345 C 588.482 454.652, 594 452.639, 594 448 C 594 443.418, 587.932 441.211, 584.571 444.571 M 548.734 450.025 C 542.967 451.480, 537.870 454.441, 533.860 458.665 C 523.550 469.528, 523.836 481.967, 534.646 492.776 C 540.658 498.788, 542 501.313, 542 506.611 C 542 508.972, 542.789 510.880, 544.455 512.545 C 546.733 514.824, 547.626 515, 556.899 515 C 565.892 515, 567.156 514.770, 569.573 512.691 C 571.704 510.858, 572.356 509.262, 572.738 504.941 C 573.175 500.008, 573.713 498.987, 578.504 494 C 581.411 490.975, 584.519 487.045, 585.411 485.267 C 593.501 469.149, 580.055 450.729, 559.290 449.483 C 555.556 449.259, 550.806 449.503, 548.734 450.025 M 1572.338 451.094 C 1522.462 456.907, 1482.791 481.781, 1464.037 519 C 1455.469 536.003, 1451.703 552.644, 1451.705 573.500 C 1451.706 595.986, 1455.522 614.926, 1463.404 631.565 C 1469.351 644.121, 1474.892 652.044, 1484.421 661.617 C 1507.727 685.034, 1541.361 697.301, 1586.151 698.721 C 1605.821 699.345, 1619.610 698.211, 1638.482 694.416 C 1656.127 690.868, 1659.301 689.600, 1664.049 684.208 C 1673.675 673.271, 1688.187 646.438, 1688.397 639.187 C 1688.488 636.022, 1688.042 635.351, 1684.500 633.323 C 1682.300 632.063, 1680.185 631.025, 1679.800 631.016 C 1679.415 631.007, 1675.843 635.837, 1671.861 641.750 C 1661.879 656.570, 1648.820 669.508, 1638.984 674.322 C 1621.981 682.642, 1595.671 684.021, 1571.067 677.883 C 1530.603 667.787, 1502.922 636.685, 1495.586 593.074 C 1492.420 574.254, 1493.845 546.641, 1498.920 528.473 C 1507.593 497.428, 1529.878 475.057, 1559.790 467.369 C 1583.972 461.153, 1620.142 463.939, 1639.685 473.522 C 1652.535 479.823, 1657.847 488.802, 1661.153 509.808 C 1662.491 518.316, 1663.534 519.548, 1668.530 518.524 C 1676.437 516.904, 1675.631 518.160, 1676.394 506.268 C 1676.977 497.174, 1679.276 477.447, 1681.616 461.455 L 1682.208 457.410 1664.854 455.123 C 1655.309 453.866, 1641.650 452.204, 1634.500 451.430 C 1620.441 449.909, 1584.189 449.713, 1572.338 451.094 M 549.734 452.029 C 544.181 453.424, 538.916 456.391, 535.301 460.162 C 526.230 469.625, 527.095 484.161, 537.212 492.290 C 542.152 496.260, 544 499.706, 544 504.950 C 544 511.578, 546.257 513, 556.777 513 C 567.560 513, 570 511.725, 570 506.093 C 570 500.142, 571.702 496.673, 576.648 492.539 C 590.394 481.048, 586.841 461.553, 569.613 453.944 C 564.044 451.484, 555.270 450.639, 549.734 452.029 M 1970.196 456.933 C 1969.893 457.721, 1969.613 460.181, 1969.573 462.400 L 1969.500 466.434 1980 468.097 C 1998.666 471.053, 2002.589 473.044, 2005.170 480.873 C 2006.715 485.561, 2007.587 638.681, 2006.164 655.539 C 2004.797 671.728, 2002.210 675.515, 1990.500 678.469 C 1975.425 682.272, 1958.358 681.937, 1945.243 677.581 C 1935.042 674.192, 1928.976 664.750, 1914.999 630.500 C 1900.893 595.937, 1853.648 473.088, 1849.873 461.160 L 1848.500 456.821 1834.760 456.660 C 1820.597 456.495, 1820 456.657, 1820 460.653 C 1820 467.033, 1752.853 631.961, 1740.713 655.400 C 1732.035 672.154, 1724.872 677.633, 1708.500 680.038 C 1696.373 681.819, 1696 682.055, 1696 687.920 C 1696 690.649, 1696.338 693.055, 1696.750 693.266 C 1697.162 693.477, 1707.166 693.301, 1718.980 692.874 C 1730.795 692.448, 1752.395 692.453, 1766.980 692.886 C 1781.566 693.320, 1793.873 693.352, 1794.329 692.958 C 1794.785 692.564, 1795.416 690.319, 1795.731 687.969 C 1796.390 683.053, 1794.633 681, 1789.767 681 C 1784.941 681, 1771.809 677.943, 1767.760 675.877 C 1760.983 672.420, 1760.661 667.787, 1766.075 651.621 C 1770.956 637.045, 1784.170 603.633, 1785.797 601.750 C 1787.187 600.142, 1790.324 600, 1824.500 600 C 1858.652 600, 1861.819 600.143, 1863.267 601.750 C 1865.940 604.718, 1884.108 651.243, 1888.521 666.425 C 1891.231 675.746, 1888.982 677.539, 1870.924 680.447 C 1866.757 681.118, 1862.819 681.994, 1862.174 682.393 C 1860.790 683.248, 1860.634 687.905, 1861.879 691.185 L 1862.758 693.500 1887.629 692.805 C 1901.308 692.422, 1928.475 692.516, 1948 693.013 C 2015.640 694.733, 2087.876 695.233, 2099.500 694.061 C 2130.531 690.931, 2154.715 682.803, 2176.632 668.136 C 2204.761 649.311, 2221.509 622.959, 2226.437 589.769 C 2231.693 554.372, 2223.707 521.057, 2204.186 496.941 C 2187.621 476.477, 2164.141 463.566, 2132.013 457.255 C 2124.521 455.784, 2114.339 455.578, 2047.124 455.542 C 1981.717 455.506, 1970.668 455.706, 1970.196 456.933 M 2264.880 457.815 C 2262.450 464.208, 2264.020 465.776, 2274.571 467.491 C 2294.352 470.708, 2297.389 472.706, 2298.954 483.537 C 2300.380 493.405, 2300.343 654.757, 2298.913 662.566 C 2297.508 670.239, 2294.948 674.296, 2290.267 676.268 C 2285.095 678.447, 2282.744 678.884, 2267.770 680.450 C 2259.283 681.338, 2254.416 682.283, 2253.825 683.157 C 2252.794 684.683, 2253.415 691.872, 2254.671 692.959 C 2255.127 693.353, 2268.550 693.336, 2284.500 692.920 C 2300.450 692.504, 2340.561 692.639, 2373.635 693.220 C 2449.527 694.552, 2449.153 694.595, 2454.477 684 C 2458.889 675.220, 2470 640.467, 2470 635.447 C 2470 634.818, 2468.313 633.586, 2466.250 632.710 C 2458.228 629.300, 2458.671 629.092, 2453.481 638.717 C 2447.223 650.323, 2441.246 659.423, 2436.045 665.266 C 2425.947 676.609, 2418.928 677.900, 2376.098 676.293 C 2343.436 675.067, 2342.423 674.831, 2338.651 667.560 C 2336.692 663.784, 2336.604 661.909, 2336.553 622.560 L 2336.500 581.500 2365 581.222 C 2396.341 580.917, 2404.975 581.689, 2408.628 585.120 C 2411.480 587.799, 2414.507 595.611, 2415.484 602.814 C 2416.095 607.315, 2416.610 608.285, 2418.853 609.161 C 2420.504 609.805, 2423.193 609.875, 2426 609.347 L 2430.500 608.500 2430.546 581.500 C 2430.573 565.607, 2431.105 550.850, 2431.839 545.627 C 2432.526 540.746, 2432.825 536.492, 2432.505 536.172 C 2432.185 535.852, 2429.046 535.407, 2425.530 535.183 L 2419.137 534.776 2418.014 539.138 C 2414.534 552.641, 2411.737 558.012, 2406.794 560.682 C 2403.825 562.286, 2400.191 562.463, 2370 562.481 L 2336.500 562.500 2336.500 519.777 C 2336.500 478.381, 2336.562 476.993, 2338.500 475.075 C 2340.302 473.291, 2342.380 473.034, 2359.500 472.481 C 2386.002 471.624, 2410.473 473.014, 2415.603 475.666 C 2420.765 478.336, 2424.459 485.697, 2426.561 497.500 C 2427.442 502.450, 2428.360 507.512, 2428.600 508.750 C 2428.995 510.781, 2429.615 511, 2434.960 511 C 2438.217 511, 2441.124 510.609, 2441.419 510.131 C 2441.715 509.653, 2442.642 503.015, 2443.480 495.381 C 2444.318 487.746, 2445.935 475.945, 2447.074 469.155 C 2448.212 462.365, 2448.961 456.627, 2448.737 456.404 C 2448.514 456.181, 2407.253 455.886, 2357.046 455.749 L 2265.760 455.500 2264.880 457.815 M 2497.055 456.897 C 2496.411 458.100, 2496.023 460.737, 2496.192 462.756 L 2496.500 466.428 2507.500 468.223 C 2527.863 471.545, 2533.650 474.450, 2535.863 482.465 C 2537.025 486.676, 2534.990 515.679, 2528.457 588 C 2522.940 649.077, 2520.617 665.077, 2516.312 671.647 C 2513.808 675.469, 2505.431 678.772, 2494.701 680.168 C 2489.311 680.869, 2484.405 681.749, 2483.799 682.124 C 2482.404 682.986, 2482.162 691.606, 2483.500 692.768 C 2484.058 693.252, 2495.223 693.307, 2508.750 692.891 C 2522.087 692.482, 2543.912 692.484, 2557.250 692.896 C 2574.961 693.444, 2581.846 693.338, 2582.784 692.504 C 2584.453 691.018, 2585.337 684.895, 2584.141 683.110 C 2583.572 682.262, 2579.369 681.201, 2573.354 680.387 C 2555.212 677.933, 2550.043 675.823, 2546.686 669.500 C 2544.737 665.830, 2544.576 664.096, 2544.733 648.500 C 2545.063 615.678, 2551.856 502.941, 2553.500 502.998 C 2555.600 503.072, 2622.254 647.461, 2635.209 680 C 2637.946 686.875, 2640.560 692.894, 2641.017 693.375 C 2641.475 693.856, 2644.246 693.950, 2647.176 693.584 L 2652.502 692.918 2657.420 681.709 C 2669.359 654.493, 2742.926 505.674, 2745.922 502.678 C 2746.869 501.731, 2747.921 555.323, 2748.265 622 C 2748.481 663.916, 2748.361 667.755, 2746.729 670.741 C 2744.092 675.566, 2741.151 676.991, 2729.277 679.196 C 2714.514 681.937, 2714 682.184, 2714 686.544 C 2714 693.874, 2712.657 693.581, 2742.650 692.811 C 2757.418 692.432, 2781.650 692.468, 2796.500 692.890 C 2813.285 693.367, 2823.973 693.297, 2824.750 692.706 C 2825.756 691.941, 2826.678 682.053, 2825.750 681.980 C 2821.151 681.621, 2802.990 678.805, 2799.890 677.970 C 2794.574 676.539, 2789.557 671.644, 2788.086 666.453 C 2785.813 658.433, 2783.408 599.715, 2782.353 526.500 C 2781.795 487.697, 2781.906 482.060, 2783.300 478.772 C 2786.004 472.392, 2789.482 471.068, 2812.459 467.675 C 2820.156 466.539, 2820.439 466.401, 2821.018 463.500 C 2821.348 461.850, 2821.346 459.375, 2821.014 458 C 2820.321 455.134, 2825.423 455.384, 2775.648 455.776 L 2747.297 456 2745.477 462.750 C 2744.351 466.923, 2734.191 488.397, 2718.863 519 C 2695.429 565.787, 2661.838 630.535, 2660.075 632.316 C 2658.953 633.450, 2657.118 630.110, 2632.438 582 C 2600.926 520.571, 2575.623 468.362, 2574.129 461.688 L 2572.857 456 2546.084 456 C 2531.359 456, 2514.567 455.710, 2508.768 455.355 C 2498.623 454.734, 2498.181 454.792, 2497.055 456.897 M 2823.382 457.612 C 2823.091 458.773, 2822.998 461.248, 2823.176 463.112 L 2823.500 466.500 2832.500 467.765 C 2837.450 468.460, 2843.975 469.730, 2847 470.586 C 2860.745 474.477, 2864.345 479.243, 2897.922 538.020 C 2923.808 583.333, 2927.718 591.357, 2929.070 601.942 C 2930.325 611.771, 2929.381 661.266, 2927.821 667.430 C 2925.738 675.659, 2919.500 678.455, 2897.500 681.025 C 2892 681.668, 2887.169 682.712, 2886.765 683.347 C 2885.566 685.230, 2885.900 691.680, 2887.250 692.700 C 2888.022 693.284, 2899.579 693.354, 2917.500 692.884 C 2933.450 692.465, 2959.325 692.477, 2975 692.910 C 2990.675 693.343, 3003.921 693.322, 3004.436 692.862 C 3004.951 692.403, 3005.401 689.901, 3005.436 687.302 L 3005.500 682.576 3001 681.903 C 2998.525 681.533, 2992.675 680.694, 2988 680.037 C 2975.600 678.297, 2971.419 676.179, 2968.758 670.289 C 2966.704 665.742, 2966.574 663.758, 2966.189 631 C 2965.919 608.029, 2966.147 595.153, 2966.871 592.469 C 2969.732 581.870, 3025.014 493.805, 3037.128 480.550 C 3043.445 473.638, 3049.879 470.572, 3062.582 468.420 C 3068.037 467.495, 3072.831 466.235, 3073.235 465.620 C 3073.639 465.004, 3073.969 462.925, 3073.969 461 C 3073.969 459.075, 3073.639 457.050, 3073.235 456.500 C 3072.764 455.859, 3056.253 455.500, 3027.228 455.500 L 2981.955 455.500 2981.006 458.939 C 2979.145 465.680, 2980.079 466.590, 2990.287 467.985 C 3006.881 470.253, 3011.008 472.286, 3010.995 478.184 C 3010.979 485.132, 2960.052 572.824, 2956.666 571.736 C 2955.204 571.266, 2948.364 559.916, 2933.164 532.735 C 2912.430 495.659, 2903 477.364, 2903 474.214 C 2903 470.670, 2905.043 469.611, 2915.500 467.732 L 2922.500 466.475 2922.500 461.215 L 2922.500 455.955 2873.206 455.728 L 2823.912 455.500 2823.382 457.612 M 1291.522 457 C 1291.364 457.275, 1290.909 459.075, 1290.510 461 C 1288.549 470.469, 1243.249 583.698, 1221.498 633.500 C 1209.188 661.685, 1202.877 671.471, 1194.131 675.933 C 1190.784 677.641, 1182.701 679.561, 1170.788 681.479 C 1167.575 681.996, 1166.995 682.509, 1166.472 685.299 C 1166.139 687.071, 1166.339 689.760, 1166.915 691.275 C 1167.856 693.751, 1168.344 693.981, 1171.731 693.553 C 1179.741 692.541, 1217.594 692.155, 1240.500 692.852 C 1256.803 693.348, 1264.736 693.249, 1265.235 692.541 C 1265.639 691.969, 1265.976 689.383, 1265.985 686.795 C 1266.002 681.509, 1267.589 682.344, 1253 679.965 C 1232.374 676.601, 1229.793 672.337, 1236.412 652.558 C 1241.593 637.073, 1254.909 603.759, 1256.713 601.764 C 1258.184 600.139, 1261.219 600, 1295.155 600 C 1329.782 600, 1332.112 600.112, 1333.866 601.866 C 1335.827 603.827, 1344.234 624.386, 1353.397 649.626 C 1360.937 670.396, 1361.430 674.001, 1357.103 676.703 C 1355.396 677.770, 1346.683 679.720, 1335.700 681.495 L 1331.899 682.110 1332.200 687.305 L 1332.500 692.500 1366 692.500 C 1384.425 692.500, 1407.990 692.650, 1418.366 692.834 C 1428.743 693.017, 1437.575 692.792, 1437.995 692.334 C 1438.414 691.875, 1439.049 689.857, 1439.406 687.848 C 1440.195 683.402, 1438.259 681, 1433.886 681 C 1428.197 681, 1415.471 677.834, 1411.208 675.359 C 1403.105 670.653, 1398.243 661.624, 1381.564 620.300 C 1363.574 575.727, 1326.522 479.110, 1322.058 465.132 L 1319.386 456.763 1305.597 456.632 C 1298.013 456.559, 1291.680 456.725, 1291.522 457 M 352.690 457.715 C 352.430 458.147, 349.244 467.528, 345.609 478.562 L 339 498.624 339 512.312 L 339 526 385.500 526 L 432 526 431.961 512.250 L 431.923 498.500 425.166 478 L 418.409 457.500 408.204 457.215 L 398 456.930 398 460.419 L 398 463.909 404.745 464.204 L 411.489 464.500 416.679 479 C 419.533 486.975, 421.898 494.288, 421.934 495.250 C 421.996 496.886, 419.620 497, 385.500 497 C 356.958 497, 349.004 496.727, 349.017 495.750 C 349.026 495.063, 351.185 487.750, 353.813 479.500 L 358.593 464.500 365.856 464.205 L 373.120 463.910 372.810 460.705 L 372.500 457.500 362.831 457.215 C 357.513 457.058, 352.949 457.283, 352.690 457.715 M 2055 469.950 C 2048.038 470.989, 2046.798 471.524, 2044.978 474.269 C 2043.717 476.173, 2043.458 486.681, 2043.213 546 C 2043.055 584.225, 2043.300 625.625, 2043.756 638 C 2044.517 658.658, 2044.770 660.829, 2046.846 664.517 C 2050.996 671.891, 2059.746 675.837, 2076.500 677.891 C 2103.471 681.197, 2127.594 677.415, 2144.806 667.182 C 2164.477 655.486, 2178.309 635.800, 2184.720 610.377 C 2187.304 600.132, 2187.464 598.193, 2187.478 577 C 2187.492 556.948, 2187.249 553.542, 2185.252 545.693 C 2174.534 503.580, 2144.142 477.331, 2098.931 471.139 C 2088.433 469.701, 2061.542 468.974, 2055 469.950 M 550.635 477.073 C 546.073 480.661, 547.334 487.653, 552.962 489.984 C 555.897 491.200, 556 491.459, 556 497.621 C 556 501.207, 556.438 504, 557 504 C 557.561 504, 558 501.228, 558 497.685 C 558 491.445, 558.042 491.351, 561.523 489.691 C 564.575 488.235, 567 484.835, 567 482.012 C 567 481.540, 565.835 479.769, 564.411 478.077 C 562.263 475.524, 561.093 475, 557.546 475 C 554.734 475, 552.367 475.710, 550.635 477.073 M 551.575 478.918 C 549.260 481.475, 549.902 484.854, 553.163 487.280 C 559.399 491.918, 567.867 483.810, 562.171 478.655 C 559.649 476.372, 553.745 476.519, 551.575 478.918 M 1292.001 505.250 C 1279.838 536.863, 1264.967 577.202, 1264.755 579.158 L 1264.500 581.500 1295.276 581.764 C 1320.298 581.980, 1326.148 581.778, 1326.567 580.686 C 1327.348 578.651, 1297.501 497, 1295.977 497 C 1295.536 497, 1293.747 500.712, 1292.001 505.250 M 1810.752 533.247 C 1794.358 576.537, 1793.638 578.615, 1794.369 580.518 C 1794.854 581.783, 1799.416 582, 1825.469 582 C 1855.377 582, 1856 581.959, 1856 579.991 C 1856 576.346, 1826.887 497.796, 1825.345 497.282 C 1824.870 497.123, 1818.303 513.308, 1810.752 533.247 M 347 511.500 L 347 519 385.500 519 L 424 519 424 511.500 L 424 504 385.500 504 L 347 504 347 511.500 M 407.667 508.667 C 406.319 510.014, 407.056 512.960, 409 514 C 412.823 516.046, 416.734 512.134, 413.800 509.200 C 412.506 507.906, 408.753 507.580, 407.667 508.667 M 543.190 518.750 C 543.491 520.313, 544.964 520.500, 557 520.500 C 569.036 520.500, 570.509 520.313, 570.810 518.750 C 571.118 517.150, 569.935 517, 557 517 C 544.065 517, 542.882 517.150, 543.190 518.750 M 543 523.500 C 543 524.762, 545.222 525, 557 525 C 568.778 525, 571 524.762, 571 523.500 C 571 522.238, 568.778 522, 557 522 C 545.222 522, 543 522.238, 543 523.500 M 543.694 526.639 C 543.312 527.021, 543 527.933, 543 528.667 C 543 529.715, 546.012 530, 557.073 530 C 569.938 530, 571.118 529.850, 570.811 528.250 C 570.515 526.707, 568.930 526.467, 557.432 526.222 C 550.258 526.070, 544.076 526.257, 543.694 526.639 M 549.441 532.532 C 552.118 534.557, 563.312 534.534, 565 532.500 C 566.092 531.184, 565.092 531.004, 556.872 531.032 C 548.413 531.061, 547.689 531.207, 549.441 532.532" stroke="none" fill="#852937" fill-rule="evenodd"/></svg>